<mxfile host="app.diagrams.net" agent="Mozilla/5.0 (Macintosh; Intel Mac OS X 10_15_7) AppleWebKit/605.1.15 (KHTML, like Gecko) Version/18.0 Safari/605.1.15" version="27.1.4" pages="4">
  <diagram name="第 1 页" id="aTohZHsUklgikJxpNjcU">
    <mxGraphModel grid="1" page="1" gridSize="10" guides="1" tooltips="1" connect="1" arrows="1" fold="1" pageScale="1" pageWidth="1169" pageHeight="827" math="0" shadow="0">
      <root>
        <mxCell id="0" />
        <mxCell id="1" parent="0" />
        <mxCell id="Jhr1pcyz5DKsm09sehV5-6" value="Costomer&lt;div&gt;&lt;br&gt;&lt;/div&gt;" style="swimlane;fontStyle=1;align=center;verticalAlign=top;childLayout=stackLayout;horizontal=1;startSize=26;horizontalStack=0;resizeParent=1;resizeParentMax=0;resizeLast=0;collapsible=1;marginBottom=0;whiteSpace=wrap;html=1;" parent="1" vertex="1">
          <mxGeometry x="60" y="290" width="220" height="140" as="geometry" />
        </mxCell>
        <mxCell id="Jhr1pcyz5DKsm09sehV5-7" value="- address : String&lt;div&gt;- points : int&amp;nbsp;&lt;/div&gt;" style="text;strokeColor=none;fillColor=none;align=left;verticalAlign=top;spacingLeft=4;spacingRight=4;overflow=hidden;rotatable=0;points=[[0,0.5],[1,0.5]];portConstraint=eastwest;whiteSpace=wrap;html=1;" parent="Jhr1pcyz5DKsm09sehV5-6" vertex="1">
          <mxGeometry y="26" width="220" height="44" as="geometry" />
        </mxCell>
        <mxCell id="Jhr1pcyz5DKsm09sehV5-8" value="" style="line;strokeWidth=1;fillColor=none;align=left;verticalAlign=middle;spacingTop=-1;spacingLeft=3;spacingRight=3;rotatable=0;labelPosition=right;points=[];portConstraint=eastwest;strokeColor=inherit;" parent="Jhr1pcyz5DKsm09sehV5-6" vertex="1">
          <mxGeometry y="70" width="220" height="8" as="geometry" />
        </mxCell>
        <mxCell id="Jhr1pcyz5DKsm09sehV5-9" value="+ placeOrder(Order order) : boolean&lt;div&gt;+ viewOrder() : &amp;nbsp;list&amp;lt;order&amp;gt;&lt;/div&gt;&lt;div&gt;+Buy() : boolean&lt;/div&gt;&lt;div&gt;+Pay() : boolean&lt;/div&gt;" style="text;strokeColor=none;fillColor=none;align=left;verticalAlign=top;spacingLeft=4;spacingRight=4;overflow=hidden;rotatable=0;points=[[0,0.5],[1,0.5]];portConstraint=eastwest;whiteSpace=wrap;html=1;" parent="Jhr1pcyz5DKsm09sehV5-6" vertex="1">
          <mxGeometry y="78" width="220" height="62" as="geometry" />
        </mxCell>
        <mxCell id="Jhr1pcyz5DKsm09sehV5-18" value="Class Diagram&lt;div&gt;Store&lt;/div&gt;" style="shape=umlFrame;whiteSpace=wrap;html=1;pointerEvents=0;recursiveResize=0;container=1;collapsible=0;width=160;" parent="1" vertex="1">
          <mxGeometry x="20" y="60" width="1030" height="800" as="geometry" />
        </mxCell>
        <mxCell id="Jhr1pcyz5DKsm09sehV5-14" value="Accountant" style="swimlane;fontStyle=1;align=center;verticalAlign=top;childLayout=stackLayout;horizontal=1;startSize=26;horizontalStack=0;resizeParent=1;resizeParentMax=0;resizeLast=0;collapsible=1;marginBottom=0;whiteSpace=wrap;html=1;" parent="Jhr1pcyz5DKsm09sehV5-18" vertex="1">
          <mxGeometry x="520" y="235" width="210" height="110" as="geometry" />
        </mxCell>
        <mxCell id="Jhr1pcyz5DKsm09sehV5-15" value="- finance permission : String" style="text;strokeColor=none;fillColor=none;align=left;verticalAlign=top;spacingLeft=4;spacingRight=4;overflow=hidden;rotatable=0;points=[[0,0.5],[1,0.5]];portConstraint=eastwest;whiteSpace=wrap;html=1;" parent="Jhr1pcyz5DKsm09sehV5-14" vertex="1">
          <mxGeometry y="26" width="210" height="26" as="geometry" />
        </mxCell>
        <mxCell id="Jhr1pcyz5DKsm09sehV5-16" value="" style="line;strokeWidth=1;fillColor=none;align=left;verticalAlign=middle;spacingTop=-1;spacingLeft=3;spacingRight=3;rotatable=0;labelPosition=right;points=[];portConstraint=eastwest;strokeColor=inherit;" parent="Jhr1pcyz5DKsm09sehV5-14" vertex="1">
          <mxGeometry y="52" width="210" height="8" as="geometry" />
        </mxCell>
        <mxCell id="Jhr1pcyz5DKsm09sehV5-17" value="+ generateFinancialReport() : Report&lt;div&gt;+ checkAccounts() : boolean&lt;/div&gt;" style="text;strokeColor=none;fillColor=none;align=left;verticalAlign=top;spacingLeft=4;spacingRight=4;overflow=hidden;rotatable=0;points=[[0,0.5],[1,0.5]];portConstraint=eastwest;whiteSpace=wrap;html=1;" parent="Jhr1pcyz5DKsm09sehV5-14" vertex="1">
          <mxGeometry y="60" width="210" height="50" as="geometry" />
        </mxCell>
        <mxCell id="Jhr1pcyz5DKsm09sehV5-10" value="SystemManager&lt;div&gt;&lt;br&gt;&lt;/div&gt;" style="swimlane;fontStyle=1;align=center;verticalAlign=top;childLayout=stackLayout;horizontal=1;startSize=26;horizontalStack=0;resizeParent=1;resizeParentMax=0;resizeLast=0;collapsible=1;marginBottom=0;whiteSpace=wrap;html=1;" parent="Jhr1pcyz5DKsm09sehV5-18" vertex="1">
          <mxGeometry x="305" y="240" width="160" height="100" as="geometry" />
        </mxCell>
        <mxCell id="Jhr1pcyz5DKsm09sehV5-11" value="- permissonLevel : int" style="text;strokeColor=none;fillColor=none;align=left;verticalAlign=top;spacingLeft=4;spacingRight=4;overflow=hidden;rotatable=0;points=[[0,0.5],[1,0.5]];portConstraint=eastwest;whiteSpace=wrap;html=1;" parent="Jhr1pcyz5DKsm09sehV5-10" vertex="1">
          <mxGeometry y="26" width="160" height="26" as="geometry" />
        </mxCell>
        <mxCell id="Jhr1pcyz5DKsm09sehV5-12" value="" style="line;strokeWidth=1;fillColor=none;align=left;verticalAlign=middle;spacingTop=-1;spacingLeft=3;spacingRight=3;rotatable=0;labelPosition=right;points=[];portConstraint=eastwest;strokeColor=inherit;" parent="Jhr1pcyz5DKsm09sehV5-10" vertex="1">
          <mxGeometry y="52" width="160" height="8" as="geometry" />
        </mxCell>
        <mxCell id="Jhr1pcyz5DKsm09sehV5-13" value="+ systemSettings() : void&lt;div&gt;+ manageUsers() : boolean&amp;nbsp;&lt;/div&gt;" style="text;strokeColor=none;fillColor=none;align=left;verticalAlign=top;spacingLeft=4;spacingRight=4;overflow=hidden;rotatable=0;points=[[0,0.5],[1,0.5]];portConstraint=eastwest;whiteSpace=wrap;html=1;" parent="Jhr1pcyz5DKsm09sehV5-10" vertex="1">
          <mxGeometry y="60" width="160" height="40" as="geometry" />
        </mxCell>
        <mxCell id="Jhr1pcyz5DKsm09sehV5-2" value="User" style="swimlane;fontStyle=1;align=center;verticalAlign=top;childLayout=stackLayout;horizontal=1;startSize=26;horizontalStack=0;resizeParent=1;resizeParentMax=0;resizeLast=0;collapsible=1;marginBottom=0;whiteSpace=wrap;html=1;" parent="Jhr1pcyz5DKsm09sehV5-18" vertex="1">
          <mxGeometry x="300" y="40" width="170" height="130" as="geometry" />
        </mxCell>
        <mxCell id="Jhr1pcyz5DKsm09sehV5-3" value="- usename:String&lt;div&gt;- password: String &amp;nbsp;&lt;div&gt;- email: String&lt;/div&gt;&lt;/div&gt;&lt;div&gt;&lt;br&gt;&lt;/div&gt;" style="text;strokeColor=none;fillColor=none;align=left;verticalAlign=top;spacingLeft=4;spacingRight=4;overflow=hidden;rotatable=0;points=[[0,0.5],[1,0.5]];portConstraint=eastwest;whiteSpace=wrap;html=1;" parent="Jhr1pcyz5DKsm09sehV5-2" vertex="1">
          <mxGeometry y="26" width="170" height="54" as="geometry" />
        </mxCell>
        <mxCell id="Jhr1pcyz5DKsm09sehV5-4" value="" style="line;strokeWidth=1;fillColor=none;align=left;verticalAlign=middle;spacingTop=-1;spacingLeft=3;spacingRight=3;rotatable=0;labelPosition=right;points=[];portConstraint=eastwest;strokeColor=inherit;" parent="Jhr1pcyz5DKsm09sehV5-2" vertex="1">
          <mxGeometry y="80" width="170" height="8" as="geometry" />
        </mxCell>
        <mxCell id="Jhr1pcyz5DKsm09sehV5-5" value="+ login(): boolewan&lt;div&gt;+ logout(): void &amp;nbsp;&lt;/div&gt;" style="text;strokeColor=none;fillColor=none;align=left;verticalAlign=top;spacingLeft=4;spacingRight=4;overflow=hidden;rotatable=0;points=[[0,0.5],[1,0.5]];portConstraint=eastwest;whiteSpace=wrap;html=1;" parent="Jhr1pcyz5DKsm09sehV5-2" vertex="1">
          <mxGeometry y="88" width="170" height="42" as="geometry" />
        </mxCell>
        <mxCell id="Jhr1pcyz5DKsm09sehV5-19" value="Extends" style="endArrow=block;endSize=16;endFill=0;html=1;rounded=0;entryX=0.414;entryY=1.078;entryDx=0;entryDy=0;entryPerimeter=0;" parent="Jhr1pcyz5DKsm09sehV5-18" target="Jhr1pcyz5DKsm09sehV5-5" edge="1">
          <mxGeometry width="160" relative="1" as="geometry">
            <mxPoint x="150" y="230" as="sourcePoint" />
            <mxPoint x="310" y="230" as="targetPoint" />
          </mxGeometry>
        </mxCell>
        <mxCell id="Jhr1pcyz5DKsm09sehV5-34" value="Extends" style="endArrow=block;endSize=16;endFill=0;html=1;rounded=0;exitX=0.5;exitY=0;exitDx=0;exitDy=0;" parent="Jhr1pcyz5DKsm09sehV5-18" source="Jhr1pcyz5DKsm09sehV5-10" target="Jhr1pcyz5DKsm09sehV5-5" edge="1">
          <mxGeometry width="160" relative="1" as="geometry">
            <mxPoint x="313" y="240" as="sourcePoint" />
            <mxPoint x="473" y="240" as="targetPoint" />
          </mxGeometry>
        </mxCell>
        <mxCell id="Jhr1pcyz5DKsm09sehV5-35" value="Extends" style="endArrow=block;endSize=16;endFill=0;html=1;rounded=0;entryX=0.557;entryY=1.01;entryDx=0;entryDy=0;entryPerimeter=0;exitX=0.5;exitY=0;exitDx=0;exitDy=0;" parent="Jhr1pcyz5DKsm09sehV5-18" source="Jhr1pcyz5DKsm09sehV5-14" edge="1">
          <mxGeometry width="160" relative="1" as="geometry">
            <mxPoint x="610" y="230" as="sourcePoint" />
            <mxPoint x="397.69000000000005" y="173.41999999999985" as="targetPoint" />
          </mxGeometry>
        </mxCell>
        <mxCell id="Jhr1pcyz5DKsm09sehV5-36" value="ban Service" style="swimlane;fontStyle=1;align=center;verticalAlign=top;childLayout=stackLayout;horizontal=1;startSize=26;horizontalStack=0;resizeParent=1;resizeParentMax=0;resizeLast=0;collapsible=1;marginBottom=0;whiteSpace=wrap;html=1;" parent="Jhr1pcyz5DKsm09sehV5-18" vertex="1">
          <mxGeometry x="25" y="580" width="250" height="100" as="geometry" />
        </mxCell>
        <mxCell id="Jhr1pcyz5DKsm09sehV5-37" value="+ bankApiurl : String" style="text;strokeColor=none;fillColor=none;align=left;verticalAlign=top;spacingLeft=4;spacingRight=4;overflow=hidden;rotatable=0;points=[[0,0.5],[1,0.5]];portConstraint=eastwest;whiteSpace=wrap;html=1;" parent="Jhr1pcyz5DKsm09sehV5-36" vertex="1">
          <mxGeometry y="26" width="250" height="26" as="geometry" />
        </mxCell>
        <mxCell id="Jhr1pcyz5DKsm09sehV5-38" value="" style="line;strokeWidth=1;fillColor=none;align=left;verticalAlign=middle;spacingTop=-1;spacingLeft=3;spacingRight=3;rotatable=0;labelPosition=right;points=[];portConstraint=eastwest;strokeColor=inherit;" parent="Jhr1pcyz5DKsm09sehV5-36" vertex="1">
          <mxGeometry y="52" width="250" height="8" as="geometry" />
        </mxCell>
        <mxCell id="Jhr1pcyz5DKsm09sehV5-39" value="+ processPayment(double amount) : boolean&lt;div&gt;+ processRefund(double amount) : boolean&lt;/div&gt;" style="text;strokeColor=none;fillColor=none;align=left;verticalAlign=top;spacingLeft=4;spacingRight=4;overflow=hidden;rotatable=0;points=[[0,0.5],[1,0.5]];portConstraint=eastwest;whiteSpace=wrap;html=1;" parent="Jhr1pcyz5DKsm09sehV5-36" vertex="1">
          <mxGeometry y="60" width="250" height="40" as="geometry" />
        </mxCell>
        <mxCell id="Jhr1pcyz5DKsm09sehV5-41" value="Order" style="swimlane;fontStyle=1;align=center;verticalAlign=top;childLayout=stackLayout;horizontal=1;startSize=26;horizontalStack=0;resizeParent=1;resizeParentMax=0;resizeLast=0;collapsible=1;marginBottom=0;whiteSpace=wrap;html=1;" parent="Jhr1pcyz5DKsm09sehV5-18" vertex="1">
          <mxGeometry x="200" y="420" width="280" height="130" as="geometry" />
        </mxCell>
        <mxCell id="Jhr1pcyz5DKsm09sehV5-42" value="- ordered:String&lt;div&gt;- oderTime : DataTime&lt;/div&gt;&lt;div&gt;- orderStatus : String&lt;/div&gt;" style="text;strokeColor=none;fillColor=none;align=left;verticalAlign=top;spacingLeft=4;spacingRight=4;overflow=hidden;rotatable=0;points=[[0,0.5],[1,0.5]];portConstraint=eastwest;whiteSpace=wrap;html=1;" parent="Jhr1pcyz5DKsm09sehV5-41" vertex="1">
          <mxGeometry y="26" width="280" height="54" as="geometry" />
        </mxCell>
        <mxCell id="Jhr1pcyz5DKsm09sehV5-43" value="" style="line;strokeWidth=1;fillColor=none;align=left;verticalAlign=middle;spacingTop=-1;spacingLeft=3;spacingRight=3;rotatable=0;labelPosition=right;points=[];portConstraint=eastwest;strokeColor=inherit;" parent="Jhr1pcyz5DKsm09sehV5-41" vertex="1">
          <mxGeometry y="80" width="280" height="8" as="geometry" />
        </mxCell>
        <mxCell id="Jhr1pcyz5DKsm09sehV5-44" value="+ updateOrderStatus(String newStatus) : boolean&lt;div&gt;+ calculate TotalPrice() : double&lt;/div&gt;" style="text;strokeColor=none;fillColor=none;align=left;verticalAlign=top;spacingLeft=4;spacingRight=4;overflow=hidden;rotatable=0;points=[[0,0.5],[1,0.5]];portConstraint=eastwest;whiteSpace=wrap;html=1;" parent="Jhr1pcyz5DKsm09sehV5-41" vertex="1">
          <mxGeometry y="88" width="280" height="42" as="geometry" />
        </mxCell>
        <mxCell id="Jhr1pcyz5DKsm09sehV5-45" style="edgeStyle=orthogonalEdgeStyle;rounded=0;orthogonalLoop=1;jettySize=auto;html=1;exitX=1;exitY=0.5;exitDx=0;exitDy=0;" parent="Jhr1pcyz5DKsm09sehV5-41" source="Jhr1pcyz5DKsm09sehV5-42" target="Jhr1pcyz5DKsm09sehV5-42" edge="1">
          <mxGeometry relative="1" as="geometry" />
        </mxCell>
        <mxCell id="Jhr1pcyz5DKsm09sehV5-50" value="Product" style="swimlane;fontStyle=1;align=center;verticalAlign=top;childLayout=stackLayout;horizontal=1;startSize=26;horizontalStack=0;resizeParent=1;resizeParentMax=0;resizeLast=0;collapsible=1;marginBottom=0;whiteSpace=wrap;html=1;" parent="Jhr1pcyz5DKsm09sehV5-18" vertex="1">
          <mxGeometry x="620" y="630" width="210" height="124" as="geometry" />
        </mxCell>
        <mxCell id="Jhr1pcyz5DKsm09sehV5-51" value="- productld : String&lt;div&gt;- productName : String&lt;/div&gt;&lt;div&gt;- productDescripyion : String&lt;/div&gt;&lt;div&gt;- productPrice : double&lt;/div&gt;" style="text;strokeColor=none;fillColor=none;align=left;verticalAlign=top;spacingLeft=4;spacingRight=4;overflow=hidden;rotatable=0;points=[[0,0.5],[1,0.5]];portConstraint=eastwest;whiteSpace=wrap;html=1;" parent="Jhr1pcyz5DKsm09sehV5-50" vertex="1">
          <mxGeometry y="26" width="210" height="64" as="geometry" />
        </mxCell>
        <mxCell id="Jhr1pcyz5DKsm09sehV5-52" value="" style="line;strokeWidth=1;fillColor=none;align=left;verticalAlign=middle;spacingTop=-1;spacingLeft=3;spacingRight=3;rotatable=0;labelPosition=right;points=[];portConstraint=eastwest;strokeColor=inherit;" parent="Jhr1pcyz5DKsm09sehV5-50" vertex="1">
          <mxGeometry y="90" width="210" height="8" as="geometry" />
        </mxCell>
        <mxCell id="Jhr1pcyz5DKsm09sehV5-53" value="+ getProductlndo() : String" style="text;strokeColor=none;fillColor=none;align=left;verticalAlign=top;spacingLeft=4;spacingRight=4;overflow=hidden;rotatable=0;points=[[0,0.5],[1,0.5]];portConstraint=eastwest;whiteSpace=wrap;html=1;" parent="Jhr1pcyz5DKsm09sehV5-50" vertex="1">
          <mxGeometry y="98" width="210" height="26" as="geometry" />
        </mxCell>
        <mxCell id="Jhr1pcyz5DKsm09sehV5-62" value="1" style="text;html=1;align=center;verticalAlign=middle;whiteSpace=wrap;rounded=0;" parent="Jhr1pcyz5DKsm09sehV5-18" vertex="1">
          <mxGeometry x="480" y="450" width="30" height="20" as="geometry" />
        </mxCell>
        <mxCell id="Jhr1pcyz5DKsm09sehV5-64" value="1...*" style="text;html=1;align=center;verticalAlign=middle;whiteSpace=wrap;rounded=0;" parent="Jhr1pcyz5DKsm09sehV5-18" vertex="1">
          <mxGeometry x="540" y="450" width="50" height="20" as="geometry" />
        </mxCell>
        <mxCell id="Jhr1pcyz5DKsm09sehV5-40" value="Use" style="endArrow=open;endSize=12;dashed=1;html=1;rounded=0;exitX=0.509;exitY=1.02;exitDx=0;exitDy=0;exitPerimeter=0;entryX=0.5;entryY=0;entryDx=0;entryDy=0;" parent="1" source="Jhr1pcyz5DKsm09sehV5-9" target="Jhr1pcyz5DKsm09sehV5-36" edge="1">
          <mxGeometry width="160" relative="1" as="geometry">
            <mxPoint x="130" y="450" as="sourcePoint" />
            <mxPoint x="290" y="450" as="targetPoint" />
          </mxGeometry>
        </mxCell>
        <mxCell id="Jhr1pcyz5DKsm09sehV5-46" value="OrderItem" style="swimlane;fontStyle=1;align=center;verticalAlign=top;childLayout=stackLayout;horizontal=1;startSize=26;horizontalStack=0;resizeParent=1;resizeParentMax=0;resizeLast=0;collapsible=1;marginBottom=0;whiteSpace=wrap;html=1;" parent="1" vertex="1">
          <mxGeometry x="610" y="490" width="280" height="130" as="geometry" />
        </mxCell>
        <mxCell id="Jhr1pcyz5DKsm09sehV5-47" value="- itemldd : String&lt;div&gt;- productQuantity : int&lt;/div&gt;&lt;div&gt;- productPrice : double&lt;/div&gt;" style="text;strokeColor=none;fillColor=none;align=left;verticalAlign=top;spacingLeft=4;spacingRight=4;overflow=hidden;rotatable=0;points=[[0,0.5],[1,0.5]];portConstraint=eastwest;whiteSpace=wrap;html=1;" parent="Jhr1pcyz5DKsm09sehV5-46" vertex="1">
          <mxGeometry y="26" width="280" height="54" as="geometry" />
        </mxCell>
        <mxCell id="Jhr1pcyz5DKsm09sehV5-48" value="" style="line;strokeWidth=1;fillColor=none;align=left;verticalAlign=middle;spacingTop=-1;spacingLeft=3;spacingRight=3;rotatable=0;labelPosition=right;points=[];portConstraint=eastwest;strokeColor=inherit;" parent="Jhr1pcyz5DKsm09sehV5-46" vertex="1">
          <mxGeometry y="80" width="280" height="8" as="geometry" />
        </mxCell>
        <mxCell id="Jhr1pcyz5DKsm09sehV5-49" value="+updateOrderStates(String newStatus) : boolean&lt;div&gt;+ calculateItemAmount() : double&lt;/div&gt;" style="text;strokeColor=none;fillColor=none;align=left;verticalAlign=top;spacingLeft=4;spacingRight=4;overflow=hidden;rotatable=0;points=[[0,0.5],[1,0.5]];portConstraint=eastwest;whiteSpace=wrap;html=1;" parent="Jhr1pcyz5DKsm09sehV5-46" vertex="1">
          <mxGeometry y="88" width="280" height="42" as="geometry" />
        </mxCell>
        <mxCell id="Jhr1pcyz5DKsm09sehV5-54" value="" style="endArrow=none;html=1;edgeStyle=orthogonalEdgeStyle;rounded=0;exitX=0.689;exitY=1.032;exitDx=0;exitDy=0;exitPerimeter=0;entryX=0.5;entryY=0;entryDx=0;entryDy=0;" parent="1" source="Jhr1pcyz5DKsm09sehV5-9" target="Jhr1pcyz5DKsm09sehV5-41" edge="1">
          <mxGeometry relative="1" as="geometry">
            <mxPoint x="770" y="740" as="sourcePoint" />
            <mxPoint x="930" y="740" as="targetPoint" />
            <Array as="points">
              <mxPoint x="212" y="450" />
              <mxPoint x="360" y="450" />
            </Array>
          </mxGeometry>
        </mxCell>
        <mxCell id="Jhr1pcyz5DKsm09sehV5-55" value="1" style="edgeLabel;resizable=0;html=1;align=left;verticalAlign=bottom;" parent="Jhr1pcyz5DKsm09sehV5-54" connectable="0" vertex="1">
          <mxGeometry x="-1" relative="1" as="geometry">
            <mxPoint y="18" as="offset" />
          </mxGeometry>
        </mxCell>
        <mxCell id="Jhr1pcyz5DKsm09sehV5-56" value="0...*" style="edgeLabel;resizable=0;html=1;align=right;verticalAlign=bottom;" parent="Jhr1pcyz5DKsm09sehV5-54" connectable="0" vertex="1">
          <mxGeometry x="1" relative="1" as="geometry">
            <mxPoint x="20" y="-10" as="offset" />
          </mxGeometry>
        </mxCell>
        <mxCell id="Jhr1pcyz5DKsm09sehV5-57" value="" style="endArrow=none;html=1;edgeStyle=orthogonalEdgeStyle;rounded=0;entryX=0.516;entryY=1.016;entryDx=0;entryDy=0;entryPerimeter=0;exitX=0.55;exitY=0.005;exitDx=0;exitDy=0;exitPerimeter=0;" parent="1" source="Jhr1pcyz5DKsm09sehV5-50" target="Jhr1pcyz5DKsm09sehV5-49" edge="1">
          <mxGeometry relative="1" as="geometry">
            <mxPoint x="460" y="570" as="sourcePoint" />
            <mxPoint x="620" y="570" as="targetPoint" />
          </mxGeometry>
        </mxCell>
        <mxCell id="Jhr1pcyz5DKsm09sehV5-58" value="1" style="edgeLabel;resizable=0;html=1;align=left;verticalAlign=bottom;" parent="Jhr1pcyz5DKsm09sehV5-57" connectable="0" vertex="1">
          <mxGeometry x="-1" relative="1" as="geometry" />
        </mxCell>
        <mxCell id="Jhr1pcyz5DKsm09sehV5-59" value="0...*" style="edgeLabel;resizable=0;html=1;align=right;verticalAlign=bottom;" parent="Jhr1pcyz5DKsm09sehV5-57" connectable="0" vertex="1">
          <mxGeometry x="1" relative="1" as="geometry">
            <mxPoint x="26" y="19" as="offset" />
          </mxGeometry>
        </mxCell>
        <mxCell id="Jhr1pcyz5DKsm09sehV5-60" value="" style="endArrow=diamondThin;endFill=1;endSize=24;html=1;rounded=0;entryX=1.004;entryY=0.663;entryDx=0;entryDy=0;entryPerimeter=0;exitX=0;exitY=0.5;exitDx=0;exitDy=0;" parent="1" source="Jhr1pcyz5DKsm09sehV5-47" target="Jhr1pcyz5DKsm09sehV5-42" edge="1">
          <mxGeometry width="160" relative="1" as="geometry">
            <mxPoint x="460" y="570" as="sourcePoint" />
            <mxPoint x="620" y="570" as="targetPoint" />
          </mxGeometry>
        </mxCell>
      </root>
    </mxGraphModel>
  </diagram>
  <diagram id="CVC6cb_pl0XpDZjPawz9" name="第 2 页">
    <mxGraphModel dx="2909" dy="1991" grid="1" gridSize="10" guides="1" tooltips="1" connect="1" arrows="1" fold="1" page="1" pageScale="1" pageWidth="827" pageHeight="1169" background="#ffffff" math="0" shadow="0">
      <root>
        <mxCell id="0" />
        <mxCell id="1" parent="0" />
        <mxCell id="-6yrlaq6HRwVSFDH9mBa-1" value="&lt;div&gt;&lt;br&gt;&lt;/div&gt;Activity review sequence diagram" style="shape=umlFrame;whiteSpace=wrap;html=1;pointerEvents=0;recursiveResize=0;container=1;collapsible=0;width=206;height=30;swimlaneFillColor=default;" parent="1" vertex="1">
          <mxGeometry x="24" y="20" width="696" height="960" as="geometry" />
        </mxCell>
        <mxCell id="-6yrlaq6HRwVSFDH9mBa-8" value="Auditor" style="shape=umlLifeline;perimeter=lifelinePerimeter;whiteSpace=wrap;html=1;container=1;dropTarget=0;collapsible=0;recursiveResize=0;outlineConnect=0;portConstraint=eastwest;newEdgeStyle={&quot;edgeStyle&quot;:&quot;elbowEdgeStyle&quot;,&quot;elbow&quot;:&quot;vertical&quot;,&quot;curved&quot;:0,&quot;rounded&quot;:0};" parent="-6yrlaq6HRwVSFDH9mBa-1" vertex="1">
          <mxGeometry x="46" y="60" width="100" height="860" as="geometry" />
        </mxCell>
        <mxCell id="-6yrlaq6HRwVSFDH9mBa-29" value="" style="html=1;points=[[0,0,0,0,5],[0,1,0,0,-5],[1,0,0,0,5],[1,1,0,0,-5]];perimeter=orthogonalPerimeter;outlineConnect=0;targetShapes=umlLifeline;portConstraint=eastwest;newEdgeStyle={&quot;curved&quot;:0,&quot;rounded&quot;:0};" parent="-6yrlaq6HRwVSFDH9mBa-8" vertex="1">
          <mxGeometry x="45" y="80" width="10" height="210" as="geometry" />
        </mxCell>
        <mxCell id="-6yrlaq6HRwVSFDH9mBa-9" value="Activity" style="shape=umlLifeline;perimeter=lifelinePerimeter;whiteSpace=wrap;html=1;container=1;dropTarget=0;collapsible=0;recursiveResize=0;outlineConnect=0;portConstraint=eastwest;newEdgeStyle={&quot;edgeStyle&quot;:&quot;elbowEdgeStyle&quot;,&quot;elbow&quot;:&quot;vertical&quot;,&quot;curved&quot;:0,&quot;rounded&quot;:0};" parent="-6yrlaq6HRwVSFDH9mBa-1" vertex="1">
          <mxGeometry x="176" y="60" width="100" height="850" as="geometry" />
        </mxCell>
        <mxCell id="-6yrlaq6HRwVSFDH9mBa-18" value="" style="html=1;points=[[0,0,0,0,5],[0,1,0,0,-5],[1,0,0,0,5],[1,1,0,0,-5]];perimeter=orthogonalPerimeter;outlineConnect=0;targetShapes=umlLifeline;portConstraint=eastwest;newEdgeStyle={&quot;curved&quot;:0,&quot;rounded&quot;:0};" parent="-6yrlaq6HRwVSFDH9mBa-9" vertex="1">
          <mxGeometry x="45" y="70" width="10" height="170" as="geometry" />
        </mxCell>
        <mxCell id="-6yrlaq6HRwVSFDH9mBa-41" value="" style="html=1;points=[[0,0,0,0,5],[0,1,0,0,-5],[1,0,0,0,5],[1,1,0,0,-5]];perimeter=orthogonalPerimeter;outlineConnect=0;targetShapes=umlLifeline;portConstraint=eastwest;newEdgeStyle={&quot;curved&quot;:0,&quot;rounded&quot;:0};" parent="-6yrlaq6HRwVSFDH9mBa-9" vertex="1">
          <mxGeometry x="45" y="350" width="10" height="130" as="geometry" />
        </mxCell>
        <mxCell id="-6yrlaq6HRwVSFDH9mBa-57" value="" style="html=1;points=[[0,0,0,0,5],[0,1,0,0,-5],[1,0,0,0,5],[1,1,0,0,-5]];perimeter=orthogonalPerimeter;outlineConnect=0;targetShapes=umlLifeline;portConstraint=eastwest;newEdgeStyle={&quot;curved&quot;:0,&quot;rounded&quot;:0};" parent="-6yrlaq6HRwVSFDH9mBa-9" vertex="1">
          <mxGeometry x="45" y="530" width="10" height="110" as="geometry" />
        </mxCell>
        <mxCell id="-6yrlaq6HRwVSFDH9mBa-67" value="&lt;br&gt;&lt;span style=&quot;caret-color: rgba(0, 0, 0, 0); color: rgba(0, 0, 0, 0); font-family: monospace; font-size: 0px; text-align: start;&quot;&gt;3CmxGraphModel%3E%3Croot%3E%3CmxCell%20id%3D%220%22%2F%3E%3CmxCell%20id%3D%221%22%20parent%3D%220%22%2F%3E%3CmxCell%20id%3D%222%22%20value%3D%22%22%20style%3D%22html%3D1%3Bpoints%3D%5B%5B0%2C0%2C0%2C0%2C5%5D%2C%5B0%2C1%2C0%2C0%2C-5%5D%2C%5B1%2C0%2C0%2C0%2C5%5D%2C%5B1%2C1%2C0%2C0%2C-5%5D%5D%3Bperimeter%3DorthogonalPerimeter%3BoutlineConnect%3D0%3BtargetShapes%3DumlLifeline%3BportConstraint%3Deastwest%3BnewEdgeStyle%3D%7B%26quot%3Bcurved%26quot%3B%3A0%2C%26quot%3Brounded%26quot%3B%3A0%7D%3B%22%20vertex%3D%221%22%20parent%3D%221%22%3E%3CmxGeometry%20x%3D%22635%22%20y%3D%22690%22%20width%3D%2210%22%20height%3D%2236.5%22%20as%3D%22geometry%22%2F%3E%3C%2FmxCell%3E%3C%2Froot%3E%3C%2FmxGraphModel%3&lt;/span&gt;" style="html=1;points=[[0,0,0,0,5],[0,1,0,0,-5],[1,0,0,0,5],[1,1,0,0,-5]];perimeter=orthogonalPerimeter;outlineConnect=0;targetShapes=umlLifeline;portConstraint=eastwest;newEdgeStyle={&quot;curved&quot;:0,&quot;rounded&quot;:0};" parent="-6yrlaq6HRwVSFDH9mBa-9" vertex="1">
          <mxGeometry x="45" y="680" width="10" height="60" as="geometry" />
        </mxCell>
        <mxCell id="-6yrlaq6HRwVSFDH9mBa-12" value="Organize" style="shape=umlLifeline;perimeter=lifelinePerimeter;whiteSpace=wrap;html=1;container=1;dropTarget=0;collapsible=0;recursiveResize=0;outlineConnect=0;portConstraint=eastwest;newEdgeStyle={&quot;edgeStyle&quot;:&quot;elbowEdgeStyle&quot;,&quot;elbow&quot;:&quot;vertical&quot;,&quot;curved&quot;:0,&quot;rounded&quot;:0};" parent="-6yrlaq6HRwVSFDH9mBa-1" vertex="1">
          <mxGeometry x="566" y="60" width="100" height="840" as="geometry" />
        </mxCell>
        <mxCell id="-6yrlaq6HRwVSFDH9mBa-19" value="" style="html=1;points=[[0,0,0,0,5],[0,1,0,0,-5],[1,0,0,0,5],[1,1,0,0,-5]];perimeter=orthogonalPerimeter;outlineConnect=0;targetShapes=umlLifeline;portConstraint=eastwest;newEdgeStyle={&quot;curved&quot;:0,&quot;rounded&quot;:0};" parent="-6yrlaq6HRwVSFDH9mBa-12" vertex="1">
          <mxGeometry x="45" y="110" width="10" height="70" as="geometry" />
        </mxCell>
        <mxCell id="-6yrlaq6HRwVSFDH9mBa-10" value="Review" style="shape=umlLifeline;perimeter=lifelinePerimeter;whiteSpace=wrap;html=1;container=1;dropTarget=0;collapsible=0;recursiveResize=0;outlineConnect=0;portConstraint=eastwest;newEdgeStyle={&quot;edgeStyle&quot;:&quot;elbowEdgeStyle&quot;,&quot;elbow&quot;:&quot;vertical&quot;,&quot;curved&quot;:0,&quot;rounded&quot;:0};" parent="-6yrlaq6HRwVSFDH9mBa-1" vertex="1">
          <mxGeometry x="306" y="60" width="100" height="850" as="geometry" />
        </mxCell>
        <mxCell id="-6yrlaq6HRwVSFDH9mBa-33" value="" style="html=1;points=[[0,0,0,0,5],[0,1,0,0,-5],[1,0,0,0,5],[1,1,0,0,-5]];perimeter=orthogonalPerimeter;outlineConnect=0;targetShapes=umlLifeline;portConstraint=eastwest;newEdgeStyle={&quot;curved&quot;:0,&quot;rounded&quot;:0};" parent="-6yrlaq6HRwVSFDH9mBa-10" vertex="1">
          <mxGeometry x="45" y="260" width="10" height="130" as="geometry" />
        </mxCell>
        <mxCell id="-6yrlaq6HRwVSFDH9mBa-11" value="Database" style="shape=umlLifeline;perimeter=lifelinePerimeter;whiteSpace=wrap;html=1;container=1;dropTarget=0;collapsible=0;recursiveResize=0;outlineConnect=0;portConstraint=eastwest;newEdgeStyle={&quot;edgeStyle&quot;:&quot;elbowEdgeStyle&quot;,&quot;elbow&quot;:&quot;vertical&quot;,&quot;curved&quot;:0,&quot;rounded&quot;:0};" parent="-6yrlaq6HRwVSFDH9mBa-1" vertex="1">
          <mxGeometry x="436" y="60" width="100" height="860" as="geometry" />
        </mxCell>
        <mxCell id="-6yrlaq6HRwVSFDH9mBa-23" value="" style="html=1;points=[[0,0,0,0,5],[0,1,0,0,-5],[1,0,0,0,5],[1,1,0,0,-5]];perimeter=orthogonalPerimeter;outlineConnect=0;targetShapes=umlLifeline;portConstraint=eastwest;newEdgeStyle={&quot;curved&quot;:0,&quot;rounded&quot;:0};" parent="-6yrlaq6HRwVSFDH9mBa-11" vertex="1">
          <mxGeometry x="45" y="110" width="10" height="70" as="geometry" />
        </mxCell>
        <mxCell id="-6yrlaq6HRwVSFDH9mBa-36" value="" style="html=1;points=[[0,0,0,0,5],[0,1,0,0,-5],[1,0,0,0,5],[1,1,0,0,-5]];perimeter=orthogonalPerimeter;outlineConnect=0;targetShapes=umlLifeline;portConstraint=eastwest;newEdgeStyle={&quot;curved&quot;:0,&quot;rounded&quot;:0};" parent="-6yrlaq6HRwVSFDH9mBa-11" vertex="1">
          <mxGeometry x="45" y="280" width="10" height="70" as="geometry" />
        </mxCell>
        <mxCell id="-6yrlaq6HRwVSFDH9mBa-44" value="" style="html=1;points=[[0,0,0,0,5],[0,1,0,0,-5],[1,0,0,0,5],[1,1,0,0,-5]];perimeter=orthogonalPerimeter;outlineConnect=0;targetShapes=umlLifeline;portConstraint=eastwest;newEdgeStyle={&quot;curved&quot;:0,&quot;rounded&quot;:0};" parent="-6yrlaq6HRwVSFDH9mBa-11" vertex="1">
          <mxGeometry x="45" y="400" width="10" height="70" as="geometry" />
        </mxCell>
        <mxCell id="-6yrlaq6HRwVSFDH9mBa-56" value="" style="html=1;points=[[0,0,0,0,5],[0,1,0,0,-5],[1,0,0,0,5],[1,1,0,0,-5]];perimeter=orthogonalPerimeter;outlineConnect=0;targetShapes=umlLifeline;portConstraint=eastwest;newEdgeStyle={&quot;curved&quot;:0,&quot;rounded&quot;:0};" parent="-6yrlaq6HRwVSFDH9mBa-11" vertex="1">
          <mxGeometry x="45" y="530" width="10" height="70" as="geometry" />
        </mxCell>
        <mxCell id="-6yrlaq6HRwVSFDH9mBa-20" value="" style="endArrow=classic;html=1;rounded=0;fontSize=12;startSize=8;endSize=8;curved=1;" parent="-6yrlaq6HRwVSFDH9mBa-1" source="-6yrlaq6HRwVSFDH9mBa-29" edge="1">
          <mxGeometry width="50" height="50" relative="1" as="geometry">
            <mxPoint x="106" y="150" as="sourcePoint" />
            <mxPoint x="221" y="150" as="targetPoint" />
            <Array as="points" />
          </mxGeometry>
        </mxCell>
        <mxCell id="-6yrlaq6HRwVSFDH9mBa-22" value="&lt;font style=&quot;font-size: 9px;&quot;&gt;获取待审核活动列表&lt;/font&gt;" style="text;html=1;align=center;verticalAlign=middle;whiteSpace=wrap;rounded=0;" parent="-6yrlaq6HRwVSFDH9mBa-1" vertex="1">
          <mxGeometry x="116" y="120" width="84" height="30" as="geometry" />
        </mxCell>
        <mxCell id="-6yrlaq6HRwVSFDH9mBa-24" value="" style="endArrow=classic;html=1;rounded=0;fontSize=12;startSize=8;endSize=8;curved=1;" parent="-6yrlaq6HRwVSFDH9mBa-1" edge="1">
          <mxGeometry width="50" height="50" relative="1" as="geometry">
            <mxPoint x="231" y="180" as="sourcePoint" />
            <mxPoint x="481" y="180" as="targetPoint" />
          </mxGeometry>
        </mxCell>
        <mxCell id="-6yrlaq6HRwVSFDH9mBa-25" value="&lt;span style=&quot;font-size: 9px;&quot;&gt;查询待审核活动&lt;/span&gt;" style="text;html=1;align=center;verticalAlign=middle;whiteSpace=wrap;rounded=0;" parent="-6yrlaq6HRwVSFDH9mBa-1" vertex="1">
          <mxGeometry x="306" y="150" width="84" height="30" as="geometry" />
        </mxCell>
        <mxCell id="-6yrlaq6HRwVSFDH9mBa-26" value="" style="endArrow=classic;html=1;rounded=0;fontSize=12;startSize=8;endSize=8;curved=1;" parent="-6yrlaq6HRwVSFDH9mBa-1" source="-6yrlaq6HRwVSFDH9mBa-23" edge="1">
          <mxGeometry width="50" height="50" relative="1" as="geometry">
            <mxPoint x="476" y="230" as="sourcePoint" />
            <mxPoint x="228.75" y="230" as="targetPoint" />
          </mxGeometry>
        </mxCell>
        <mxCell id="-6yrlaq6HRwVSFDH9mBa-27" value="&lt;span style=&quot;font-size: 9px;&quot;&gt;返回待审核活动列表&lt;/span&gt;" style="text;html=1;align=center;verticalAlign=middle;whiteSpace=wrap;rounded=0;" parent="-6yrlaq6HRwVSFDH9mBa-1" vertex="1">
          <mxGeometry x="306" y="200" width="84" height="30" as="geometry" />
        </mxCell>
        <mxCell id="-6yrlaq6HRwVSFDH9mBa-28" value="" style="endArrow=classic;html=1;rounded=0;fontSize=12;startSize=8;endSize=8;curved=1;" parent="-6yrlaq6HRwVSFDH9mBa-1" edge="1">
          <mxGeometry width="50" height="50" relative="1" as="geometry">
            <mxPoint x="221" y="250" as="sourcePoint" />
            <mxPoint x="101" y="250" as="targetPoint" />
          </mxGeometry>
        </mxCell>
        <mxCell id="-6yrlaq6HRwVSFDH9mBa-30" value="&lt;span style=&quot;font-size: 9px;&quot;&gt;展示待审核活动列表&lt;/span&gt;" style="text;html=1;align=center;verticalAlign=middle;whiteSpace=wrap;rounded=0;" parent="-6yrlaq6HRwVSFDH9mBa-1" vertex="1">
          <mxGeometry x="119" y="222" width="84" height="30" as="geometry" />
        </mxCell>
        <mxCell id="-6yrlaq6HRwVSFDH9mBa-31" value="" style="endArrow=classic;html=1;rounded=0;fontSize=12;startSize=8;endSize=8;curved=1;" parent="-6yrlaq6HRwVSFDH9mBa-1" source="-6yrlaq6HRwVSFDH9mBa-29" target="-6yrlaq6HRwVSFDH9mBa-18" edge="1">
          <mxGeometry width="50" height="50" relative="1" as="geometry">
            <mxPoint x="106" y="280" as="sourcePoint" />
            <mxPoint x="216" y="280" as="targetPoint" />
            <Array as="points">
              <mxPoint x="156" y="280" />
            </Array>
          </mxGeometry>
        </mxCell>
        <mxCell id="-6yrlaq6HRwVSFDH9mBa-32" value="&lt;span style=&quot;font-size: 9px;&quot;&gt;选择活动进行审核&lt;/span&gt;" style="text;html=1;align=center;verticalAlign=middle;whiteSpace=wrap;rounded=0;" parent="-6yrlaq6HRwVSFDH9mBa-1" vertex="1">
          <mxGeometry x="116" y="250" width="84" height="30" as="geometry" />
        </mxCell>
        <mxCell id="-6yrlaq6HRwVSFDH9mBa-34" value="" style="endArrow=classic;html=1;rounded=0;fontSize=12;startSize=8;endSize=8;curved=1;" parent="-6yrlaq6HRwVSFDH9mBa-1" target="-6yrlaq6HRwVSFDH9mBa-33" edge="1">
          <mxGeometry width="50" height="50" relative="1" as="geometry">
            <mxPoint x="95.78142857142866" y="335" as="sourcePoint" />
            <mxPoint x="356.21" y="335" as="targetPoint" />
          </mxGeometry>
        </mxCell>
        <mxCell id="-6yrlaq6HRwVSFDH9mBa-35" value="&lt;span style=&quot;font-size: 9px;&quot;&gt;创建审核记录&lt;/span&gt;" style="text;html=1;align=center;verticalAlign=middle;whiteSpace=wrap;rounded=0;" parent="-6yrlaq6HRwVSFDH9mBa-1" vertex="1">
          <mxGeometry x="184" y="310" width="84" height="30" as="geometry" />
        </mxCell>
        <mxCell id="-6yrlaq6HRwVSFDH9mBa-37" value="" style="endArrow=classic;html=1;rounded=0;fontSize=12;startSize=8;endSize=8;curved=1;" parent="-6yrlaq6HRwVSFDH9mBa-1" source="-6yrlaq6HRwVSFDH9mBa-33" edge="1">
          <mxGeometry width="50" height="50" relative="1" as="geometry">
            <mxPoint x="366" y="360" as="sourcePoint" />
            <mxPoint x="481" y="360" as="targetPoint" />
          </mxGeometry>
        </mxCell>
        <mxCell id="-6yrlaq6HRwVSFDH9mBa-38" value="&lt;span style=&quot;font-size: 9px;&quot;&gt;保存审核记录&lt;/span&gt;" style="text;html=1;align=center;verticalAlign=middle;whiteSpace=wrap;rounded=0;" parent="-6yrlaq6HRwVSFDH9mBa-1" vertex="1">
          <mxGeometry x="376" y="330" width="84" height="30" as="geometry" />
        </mxCell>
        <mxCell id="-6yrlaq6HRwVSFDH9mBa-39" value="" style="endArrow=classic;html=1;rounded=0;fontSize=12;startSize=8;endSize=8;curved=1;" parent="-6yrlaq6HRwVSFDH9mBa-1" target="-6yrlaq6HRwVSFDH9mBa-33" edge="1">
          <mxGeometry width="50" height="50" relative="1" as="geometry">
            <mxPoint x="480.25" y="390" as="sourcePoint" />
            <mxPoint x="366" y="390" as="targetPoint" />
          </mxGeometry>
        </mxCell>
        <mxCell id="-6yrlaq6HRwVSFDH9mBa-40" value="&lt;span style=&quot;font-size: 9px;&quot;&gt;返回保存成功&lt;/span&gt;" style="text;html=1;align=center;verticalAlign=middle;whiteSpace=wrap;rounded=0;" parent="-6yrlaq6HRwVSFDH9mBa-1" vertex="1">
          <mxGeometry x="376" y="360" width="84" height="30" as="geometry" />
        </mxCell>
        <mxCell id="-6yrlaq6HRwVSFDH9mBa-42" value="" style="endArrow=classic;html=1;rounded=0;fontSize=12;startSize=8;endSize=8;curved=1;" parent="-6yrlaq6HRwVSFDH9mBa-1" target="-6yrlaq6HRwVSFDH9mBa-41" edge="1">
          <mxGeometry width="50" height="50" relative="1" as="geometry">
            <mxPoint x="350.5" y="430" as="sourcePoint" />
            <mxPoint x="236" y="430" as="targetPoint" />
          </mxGeometry>
        </mxCell>
        <mxCell id="-6yrlaq6HRwVSFDH9mBa-43" value="&lt;span style=&quot;font-size: 9px;&quot;&gt;更新活动审核状态&lt;/span&gt;" style="text;html=1;align=center;verticalAlign=middle;whiteSpace=wrap;rounded=0;" parent="-6yrlaq6HRwVSFDH9mBa-1" vertex="1">
          <mxGeometry x="246" y="400" width="84" height="30" as="geometry" />
        </mxCell>
        <mxCell id="-6yrlaq6HRwVSFDH9mBa-45" value="" style="endArrow=classic;html=1;rounded=0;fontSize=12;startSize=8;endSize=8;curved=1;" parent="-6yrlaq6HRwVSFDH9mBa-1" edge="1">
          <mxGeometry width="50" height="50" relative="1" as="geometry">
            <mxPoint x="228.75" y="480" as="sourcePoint" />
            <mxPoint x="483.25" y="480" as="targetPoint" />
          </mxGeometry>
        </mxCell>
        <mxCell id="-6yrlaq6HRwVSFDH9mBa-46" value="&lt;span style=&quot;font-size: 9px;&quot;&gt;更新活动状态&lt;/span&gt;" style="text;html=1;align=center;verticalAlign=middle;whiteSpace=wrap;rounded=0;" parent="-6yrlaq6HRwVSFDH9mBa-1" vertex="1">
          <mxGeometry x="314" y="450" width="84" height="30" as="geometry" />
        </mxCell>
        <mxCell id="-6yrlaq6HRwVSFDH9mBa-47" value="" style="endArrow=classic;html=1;rounded=0;fontSize=12;startSize=8;endSize=8;curved=1;" parent="-6yrlaq6HRwVSFDH9mBa-1" edge="1">
          <mxGeometry width="50" height="50" relative="1" as="geometry">
            <mxPoint x="481" y="520" as="sourcePoint" />
            <mxPoint x="231" y="520" as="targetPoint" />
          </mxGeometry>
        </mxCell>
        <mxCell id="-6yrlaq6HRwVSFDH9mBa-48" value="&lt;span style=&quot;font-size: 9px;&quot;&gt;返回更新成功&lt;/span&gt;" style="text;html=1;align=center;verticalAlign=middle;whiteSpace=wrap;rounded=0;" parent="-6yrlaq6HRwVSFDH9mBa-1" vertex="1">
          <mxGeometry x="314" y="490" width="84" height="30" as="geometry" />
        </mxCell>
        <mxCell id="-6yrlaq6HRwVSFDH9mBa-50" value="alt" style="shape=umlFrame;whiteSpace=wrap;html=1;pointerEvents=0;recursiveResize=0;container=1;collapsible=0;width=45;height=23;" parent="-6yrlaq6HRwVSFDH9mBa-1" vertex="1">
          <mxGeometry x="198" y="560" width="440" height="253" as="geometry" />
        </mxCell>
        <mxCell id="-6yrlaq6HRwVSFDH9mBa-51" value="[审核通过]" style="text;html=1;" parent="-6yrlaq6HRwVSFDH9mBa-50" vertex="1">
          <mxGeometry width="100" height="20" relative="1" as="geometry">
            <mxPoint x="188" as="offset" />
          </mxGeometry>
        </mxCell>
        <mxCell id="-6yrlaq6HRwVSFDH9mBa-52" value="" style="line;strokeWidth=1;dashed=1;labelPosition=center;verticalLabelPosition=bottom;align=left;verticalAlign=top;spacingLeft=20;spacingTop=15;html=1;whiteSpace=wrap;" parent="-6yrlaq6HRwVSFDH9mBa-50" vertex="1">
          <mxGeometry y="150" width="440" height="10" as="geometry" />
        </mxCell>
        <mxCell id="-6yrlaq6HRwVSFDH9mBa-55" value="[审核不通过]" style="text;html=1;" parent="-6yrlaq6HRwVSFDH9mBa-50" vertex="1">
          <mxGeometry x="187.99999999999977" y="160" width="100" height="20" as="geometry" />
        </mxCell>
        <mxCell id="-6yrlaq6HRwVSFDH9mBa-58" value="" style="endArrow=classic;html=1;rounded=0;fontSize=12;startSize=8;endSize=8;curved=1;" parent="-6yrlaq6HRwVSFDH9mBa-50" edge="1">
          <mxGeometry width="50" height="50" relative="1" as="geometry">
            <mxPoint x="33" y="50" as="sourcePoint" />
            <mxPoint x="283" y="50" as="targetPoint" />
          </mxGeometry>
        </mxCell>
        <mxCell id="-6yrlaq6HRwVSFDH9mBa-59" value="&lt;span style=&quot;font-size: 9px;&quot;&gt;设置活动状态为已发布&lt;/span&gt;" style="text;html=1;align=center;verticalAlign=middle;whiteSpace=wrap;rounded=0;" parent="-6yrlaq6HRwVSFDH9mBa-50" vertex="1">
          <mxGeometry x="118" y="20" width="92" height="30" as="geometry" />
        </mxCell>
        <mxCell id="-6yrlaq6HRwVSFDH9mBa-60" value="" style="endArrow=classic;html=1;rounded=0;fontSize=12;startSize=8;endSize=8;curved=1;" parent="-6yrlaq6HRwVSFDH9mBa-50" edge="1">
          <mxGeometry width="50" height="50" relative="1" as="geometry">
            <mxPoint x="283" y="90" as="sourcePoint" />
            <mxPoint x="33" y="90" as="targetPoint" />
          </mxGeometry>
        </mxCell>
        <mxCell id="-6yrlaq6HRwVSFDH9mBa-61" value="&lt;span style=&quot;font-size: 9px;&quot;&gt;返回更新成功&lt;/span&gt;" style="text;html=1;align=center;verticalAlign=middle;whiteSpace=wrap;rounded=0;" parent="-6yrlaq6HRwVSFDH9mBa-50" vertex="1">
          <mxGeometry x="108" y="60" width="92" height="30" as="geometry" />
        </mxCell>
        <mxCell id="-6yrlaq6HRwVSFDH9mBa-65" value="&lt;span style=&quot;font-size: 9px;&quot;&gt;通知活动审核通过&lt;/span&gt;" style="text;html=1;align=center;verticalAlign=middle;whiteSpace=wrap;rounded=0;" parent="-6yrlaq6HRwVSFDH9mBa-50" vertex="1">
          <mxGeometry x="174" y="110" width="92" height="20" as="geometry" />
        </mxCell>
        <mxCell id="-6yrlaq6HRwVSFDH9mBa-63" value="&lt;br&gt;&lt;span style=&quot;caret-color: rgba(0, 0, 0, 0); color: rgba(0, 0, 0, 0); font-family: monospace; font-size: 0px; text-align: start;&quot;&gt;3CmxGraphModel%3E%3Croot%3E%3CmxCell%20id%3D%220%22%2F%3E%3CmxCell%20id%3D%221%22%20parent%3D%220%22%2F%3E%3CmxCell%20id%3D%222%22%20value%3D%22%22%20style%3D%22html%3D1%3Bpoints%3D%5B%5B0%2C0%2C0%2C0%2C5%5D%2C%5B0%2C1%2C0%2C0%2C-5%5D%2C%5B1%2C0%2C0%2C0%2C5%5D%2C%5B1%2C1%2C0%2C0%2C-5%5D%5D%3Bperimeter%3DorthogonalPerimeter%3BoutlineConnect%3D0%3BtargetShapes%3DumlLifeline%3BportConstraint%3Deastwest%3BnewEdgeStyle%3D%7B%26quot%3Bcurved%26quot%3B%3A0%2C%26quot%3Brounded%26quot%3B%3A0%7D%3B%22%20vertex%3D%221%22%20parent%3D%221%22%3E%3CmxGeometry%20x%3D%22635%22%20y%3D%22690%22%20width%3D%2210%22%20height%3D%2236.5%22%20as%3D%22geometry%22%2F%3E%3C%2FmxCell%3E%3C%2Froot%3E%3C%2FmxGraphModel%3&lt;/span&gt;" style="html=1;points=[[0,0,0,0,5],[0,1,0,0,-5],[1,0,0,0,5],[1,1,0,0,-5]];perimeter=orthogonalPerimeter;outlineConnect=0;targetShapes=umlLifeline;portConstraint=eastwest;newEdgeStyle={&quot;curved&quot;:0,&quot;rounded&quot;:0};" parent="-6yrlaq6HRwVSFDH9mBa-50" vertex="1">
          <mxGeometry x="413" y="110" width="10" height="36.5" as="geometry" />
        </mxCell>
        <mxCell id="-6yrlaq6HRwVSFDH9mBa-64" style="edgeStyle=none;curved=0;rounded=0;orthogonalLoop=1;jettySize=auto;html=1;exitX=1;exitY=1;exitDx=0;exitDy=-5;exitPerimeter=0;fontSize=12;startSize=8;endSize=8;" parent="-6yrlaq6HRwVSFDH9mBa-50" edge="1">
          <mxGeometry relative="1" as="geometry">
            <mxPoint x="33" y="130" as="sourcePoint" />
            <mxPoint x="413" y="130" as="targetPoint" />
          </mxGeometry>
        </mxCell>
        <mxCell id="-6yrlaq6HRwVSFDH9mBa-66" value="&lt;br&gt;&lt;span style=&quot;caret-color: rgba(0, 0, 0, 0); color: rgba(0, 0, 0, 0); font-family: monospace; font-size: 0px; text-align: start;&quot;&gt;3CmxGraphModel%3E%3Croot%3E%3CmxCell%20id%3D%220%22%2F%3E%3CmxCell%20id%3D%221%22%20parent%3D%220%22%2F%3E%3CmxCell%20id%3D%222%22%20value%3D%22%22%20style%3D%22html%3D1%3Bpoints%3D%5B%5B0%2C0%2C0%2C0%2C5%5D%2C%5B0%2C1%2C0%2C0%2C-5%5D%2C%5B1%2C0%2C0%2C0%2C5%5D%2C%5B1%2C1%2C0%2C0%2C-5%5D%5D%3Bperimeter%3DorthogonalPerimeter%3BoutlineConnect%3D0%3BtargetShapes%3DumlLifeline%3BportConstraint%3Deastwest%3BnewEdgeStyle%3D%7B%26quot%3Bcurved%26quot%3B%3A0%2C%26quot%3Brounded%26quot%3B%3A0%7D%3B%22%20vertex%3D%221%22%20parent%3D%221%22%3E%3CmxGeometry%20x%3D%22635%22%20y%3D%22690%22%20width%3D%2210%22%20height%3D%2236.5%22%20as%3D%22geometry%22%2F%3E%3C%2FmxCell%3E%3C%2Froot%3E%3C%2FmxGraphModel%3&lt;/span&gt;" style="html=1;points=[[0,0,0,0,5],[0,1,0,0,-5],[1,0,0,0,5],[1,1,0,0,-5]];perimeter=orthogonalPerimeter;outlineConnect=0;targetShapes=umlLifeline;portConstraint=eastwest;newEdgeStyle={&quot;curved&quot;:0,&quot;rounded&quot;:0};" parent="-6yrlaq6HRwVSFDH9mBa-50" vertex="1">
          <mxGeometry x="413" y="190" width="10" height="36.5" as="geometry" />
        </mxCell>
        <mxCell id="-6yrlaq6HRwVSFDH9mBa-68" value="" style="endArrow=classic;html=1;rounded=0;fontSize=12;startSize=8;endSize=8;curved=1;" parent="-6yrlaq6HRwVSFDH9mBa-50" source="-6yrlaq6HRwVSFDH9mBa-67" target="-6yrlaq6HRwVSFDH9mBa-66" edge="1">
          <mxGeometry width="50" height="50" relative="1" as="geometry">
            <mxPoint x="198" y="190" as="sourcePoint" />
            <mxPoint x="248" y="140" as="targetPoint" />
          </mxGeometry>
        </mxCell>
        <mxCell id="-6yrlaq6HRwVSFDH9mBa-69" value="&lt;span style=&quot;font-size: 9px;&quot;&gt;通知活动审核不通过及原因&lt;/span&gt;" style="text;html=1;align=center;verticalAlign=middle;whiteSpace=wrap;rounded=0;" parent="-6yrlaq6HRwVSFDH9mBa-50" vertex="1">
          <mxGeometry x="152" y="180" width="136" height="30" as="geometry" />
        </mxCell>
        <mxCell id="-6yrlaq6HRwVSFDH9mBa-75" value="Activity" style="rounded=0;whiteSpace=wrap;html=1;" parent="-6yrlaq6HRwVSFDH9mBa-1" vertex="1">
          <mxGeometry x="176" y="880" width="100" height="40" as="geometry" />
        </mxCell>
        <mxCell id="-6yrlaq6HRwVSFDH9mBa-130" value="Review" style="rounded=0;whiteSpace=wrap;html=1;" parent="-6yrlaq6HRwVSFDH9mBa-1" vertex="1">
          <mxGeometry x="306" y="880" width="100" height="40" as="geometry" />
        </mxCell>
        <mxCell id="-6yrlaq6HRwVSFDH9mBa-131" value="Database" style="rounded=0;whiteSpace=wrap;html=1;" parent="-6yrlaq6HRwVSFDH9mBa-1" vertex="1">
          <mxGeometry x="436" y="880" width="100" height="40" as="geometry" />
        </mxCell>
        <mxCell id="-6yrlaq6HRwVSFDH9mBa-132" value="Organizer" style="rounded=0;whiteSpace=wrap;html=1;" parent="-6yrlaq6HRwVSFDH9mBa-1" vertex="1">
          <mxGeometry x="566" y="880" width="100" height="40" as="geometry" />
        </mxCell>
        <mxCell id="-6yrlaq6HRwVSFDH9mBa-133" value="Auditor" style="rounded=0;whiteSpace=wrap;html=1;" parent="-6yrlaq6HRwVSFDH9mBa-1" vertex="1">
          <mxGeometry x="46" y="880" width="100" height="40" as="geometry" />
        </mxCell>
      </root>
    </mxGraphModel>
  </diagram>
  <diagram id="Lajj4u7kQbr9GfTRCpV2" name="第 3 页">
    <mxGraphModel dx="1074" dy="788" grid="1" gridSize="10" guides="1" tooltips="1" connect="1" arrows="1" fold="1" page="1" pageScale="1" pageWidth="1169" pageHeight="827" math="0" shadow="0">
      <root>
        <mxCell id="0" />
        <mxCell id="1" parent="0" />
        <mxCell id="itVu1tEwa2cNqkqHf882-3" value="用户交互层" style="shape=folder;fontStyle=1;tabWidth=110;tabHeight=30;tabPosition=left;html=1;boundedLbl=1;labelInHeader=1;container=1;collapsible=0;recursiveResize=0;whiteSpace=wrap;" vertex="1" parent="1">
          <mxGeometry x="79.5" y="30" width="875" height="180" as="geometry" />
        </mxCell>
        <mxCell id="itVu1tEwa2cNqkqHf882-4" value="«entity» Student" style="html=1;whiteSpace=wrap;" vertex="1" parent="itVu1tEwa2cNqkqHf882-3">
          <mxGeometry width="140" height="40" relative="1" as="geometry">
            <mxPoint x="20" y="50" as="offset" />
          </mxGeometry>
        </mxCell>
        <mxCell id="itVu1tEwa2cNqkqHf882-7" value="«entity»Organizer" style="html=1;whiteSpace=wrap;" vertex="1" parent="itVu1tEwa2cNqkqHf882-3">
          <mxGeometry x="195" y="49.999999999999886" width="140" height="40" as="geometry" />
        </mxCell>
        <mxCell id="itVu1tEwa2cNqkqHf882-11" value="《entity》Auditor" style="html=1;whiteSpace=wrap;" vertex="1" parent="itVu1tEwa2cNqkqHf882-3">
          <mxGeometry x="365" y="49.999999999999886" width="140" height="40" as="geometry" />
        </mxCell>
        <mxCell id="itVu1tEwa2cNqkqHf882-10" value="&lt;p style=&quot;margin: 0px; font-style: normal; font-variant-caps: normal; font-stretch: normal; line-height: normal; font-size-adjust: none; font-kerning: auto; font-variant-alternates: normal; font-variant-ligatures: normal; font-variant-numeric: normal; font-variant-east-asian: normal; font-variant-position: normal; font-variant-emoji: normal; font-feature-settings: normal; font-optical-sizing: auto; font-variation-settings: normal;&quot;&gt;«entity» ApplicationInfo&lt;/p&gt;" style="html=1;whiteSpace=wrap;" vertex="1" parent="itVu1tEwa2cNqkqHf882-3">
          <mxGeometry x="535" y="49.999999999999886" width="140" height="40" as="geometry" />
        </mxCell>
        <mxCell id="itVu1tEwa2cNqkqHf882-9" value="&lt;p style=&quot;margin: 0px; font-style: normal; font-variant-caps: normal; font-stretch: normal; line-height: normal; font-size-adjust: none; font-kerning: auto; font-variant-alternates: normal; font-variant-ligatures: normal; font-variant-numeric: normal; font-variant-east-asian: normal; font-variant-position: normal; font-variant-emoji: normal; font-feature-settings: normal; font-optical-sizing: auto; font-variation-settings: normal;&quot;&gt;«entity» ActivityInfo&lt;/p&gt;" style="html=1;whiteSpace=wrap;" vertex="1" parent="itVu1tEwa2cNqkqHf882-3">
          <mxGeometry x="705" y="49.999999999999886" width="140" height="40" as="geometry" />
        </mxCell>
        <mxCell id="itVu1tEwa2cNqkqHf882-8" value="&lt;p style=&quot;margin: 0px; font-style: normal; font-variant-caps: normal; font-stretch: normal; line-height: normal; font-size-adjust: none; font-kerning: auto; font-variant-alternates: normal; font-variant-ligatures: normal; font-variant-numeric: normal; font-variant-east-asian: normal; font-variant-position: normal; font-variant-emoji: normal; font-feature-settings: normal; font-optical-sizing: auto; font-variation-settings: normal;&quot;&gt;«boundary» ActivityDisplayUl&lt;/p&gt;" style="html=1;whiteSpace=wrap;" vertex="1" parent="itVu1tEwa2cNqkqHf882-3">
          <mxGeometry x="535" y="109.99999999999989" width="140" height="40" as="geometry" />
        </mxCell>
        <mxCell id="itVu1tEwa2cNqkqHf882-35" value="&lt;p style=&quot;margin: 0px; font-style: normal; font-variant-caps: normal; font-stretch: normal; line-height: normal; font-size-adjust: none; font-kerning: auto; font-variant-alternates: normal; font-variant-ligatures: normal; font-variant-numeric: normal; font-variant-east-asian: normal; font-variant-position: normal; font-variant-emoji: normal; font-feature-settings: normal; font-optical-sizing: auto; font-variation-settings: normal;&quot;&gt;«boundary» OrganizerPanel&lt;/p&gt;" style="html=1;whiteSpace=wrap;" vertex="1" parent="itVu1tEwa2cNqkqHf882-3">
          <mxGeometry x="25" y="109.99999999999989" width="140" height="40" as="geometry" />
        </mxCell>
        <mxCell id="itVu1tEwa2cNqkqHf882-34" value="&lt;p style=&quot;margin: 0px; font-style: normal; font-variant-caps: normal; font-stretch: normal; line-height: normal; font-size-adjust: none; font-kerning: auto; font-variant-alternates: normal; font-variant-ligatures: normal; font-variant-numeric: normal; font-variant-east-asian: normal; font-variant-position: normal; font-variant-emoji: normal; font-feature-settings: normal; font-optical-sizing: auto; font-variation-settings: normal;&quot;&gt;«boundary» AuditorConsole&lt;/p&gt;" style="html=1;whiteSpace=wrap;" vertex="1" parent="itVu1tEwa2cNqkqHf882-3">
          <mxGeometry x="195" y="109.99999999999989" width="140" height="40" as="geometry" />
        </mxCell>
        <mxCell id="itVu1tEwa2cNqkqHf882-33" value="&lt;p style=&quot;margin: 0px; font-style: normal; font-variant-caps: normal; font-stretch: normal; line-height: normal; font-size-adjust: none; font-kerning: auto; font-variant-alternates: normal; font-variant-ligatures: normal; font-variant-numeric: normal; font-variant-east-asian: normal; font-variant-position: normal; font-variant-emoji: normal; font-feature-settings: normal; font-optical-sizing: auto; font-variation-settings: normal;&quot;&gt;«boundary» RegistrationUl&lt;/p&gt;" style="html=1;whiteSpace=wrap;" vertex="1" parent="itVu1tEwa2cNqkqHf882-3">
          <mxGeometry x="365" y="109.99999999999989" width="140" height="40" as="geometry" />
        </mxCell>
        <mxCell id="itVu1tEwa2cNqkqHf882-39" value="Package1" style="shape=folder;fontStyle=1;tabWidth=110;tabHeight=30;tabPosition=left;html=1;boundedLbl=1;labelInHeader=1;container=1;collapsible=0;recursiveResize=0;whiteSpace=wrap;" vertex="1" parent="1">
          <mxGeometry x="80" y="260" width="880" height="110" as="geometry" />
        </mxCell>
        <mxCell id="itVu1tEwa2cNqkqHf882-41" value="&lt;p style=&quot;margin: 0px; font-style: normal; font-variant-caps: normal; font-stretch: normal; line-height: normal; font-size-adjust: none; font-kerning: auto; font-variant-alternates: normal; font-variant-ligatures: normal; font-variant-numeric: normal; font-variant-east-asian: normal; font-variant-position: normal; font-variant-emoji: normal; font-feature-settings: normal; font-optical-sizing: auto; font-variation-settings: normal;&quot;&gt;&amp;nbsp;«control» ActivityManager&lt;br&gt;&lt;/p&gt;" style="html=1;whiteSpace=wrap;" vertex="1" parent="itVu1tEwa2cNqkqHf882-39">
          <mxGeometry x="25" y="49.999999999999886" width="140" height="40" as="geometry" />
        </mxCell>
        <mxCell id="itVu1tEwa2cNqkqHf882-42" value="&lt;p style=&quot;margin: 0px; font-style: normal; font-variant-caps: normal; font-stretch: normal; line-height: normal; font-size-adjust: none; font-kerning: auto; font-variant-alternates: normal; font-variant-ligatures: normal; font-variant-numeric: normal; font-variant-east-asian: normal; font-variant-position: normal; font-variant-emoji: normal; font-feature-settings: normal; font-optical-sizing: auto; font-variation-settings: normal;&quot;&gt;&amp;nbsp;«control» ApplicationManager&lt;br&gt;&lt;/p&gt;" style="html=1;whiteSpace=wrap;" vertex="1" parent="itVu1tEwa2cNqkqHf882-39">
          <mxGeometry x="200" y="49.999999999999886" width="140" height="40" as="geometry" />
        </mxCell>
        <mxCell id="itVu1tEwa2cNqkqHf882-45" value="&lt;p style=&quot;margin: 0px; font-style: normal; font-variant-caps: normal; font-stretch: normal; line-height: normal; font-size-adjust: none; font-kerning: auto; font-variant-alternates: normal; font-variant-ligatures: normal; font-variant-numeric: normal; font-variant-east-asian: normal; font-variant-position: normal; font-variant-emoji: normal; font-feature-settings: normal; font-optical-sizing: auto; font-variation-settings: normal;&quot;&gt;&amp;nbsp;«control» ReviewManager&lt;br&gt;&lt;/p&gt;" style="html=1;whiteSpace=wrap;" vertex="1" parent="itVu1tEwa2cNqkqHf882-39">
          <mxGeometry x="370" y="49.999999999999886" width="140" height="40" as="geometry" />
        </mxCell>
        <mxCell id="itVu1tEwa2cNqkqHf882-44" value="&lt;p style=&quot;margin: 0px; font-style: normal; font-variant-caps: normal; font-stretch: normal; line-height: normal; font-size-adjust: none; font-kerning: auto; font-variant-alternates: normal; font-variant-ligatures: normal; font-variant-numeric: normal; font-variant-east-asian: normal; font-variant-position: normal; font-variant-emoji: normal; font-feature-settings: normal; font-optical-sizing: auto; font-variation-settings: normal;&quot;&gt;&amp;nbsp;«control» UserManager&lt;br&gt;&lt;/p&gt;" style="html=1;whiteSpace=wrap;" vertex="1" parent="itVu1tEwa2cNqkqHf882-39">
          <mxGeometry x="540" y="50" width="140" height="40" as="geometry" />
        </mxCell>
        <mxCell id="itVu1tEwa2cNqkqHf882-43" value="&lt;p style=&quot;margin: 0px; font-style: normal; font-variant-caps: normal; font-stretch: normal; line-height: normal; font-size-adjust: none; font-kerning: auto; font-variant-alternates: normal; font-variant-ligatures: normal; font-variant-numeric: normal; font-variant-east-asian: normal; font-variant-position: normal; font-variant-emoji: normal; font-feature-settings: normal; font-optical-sizing: auto; font-variation-settings: normal;&quot;&gt;&amp;nbsp;«control» Statistics Manager&lt;br&gt;&lt;/p&gt;" style="html=1;whiteSpace=wrap;" vertex="1" parent="itVu1tEwa2cNqkqHf882-39">
          <mxGeometry x="710" y="49.999999999999886" width="140" height="40" as="geometry" />
        </mxCell>
        <mxCell id="itVu1tEwa2cNqkqHf882-51" value="Package1" style="shape=folder;fontStyle=1;tabWidth=110;tabHeight=30;tabPosition=left;html=1;boundedLbl=1;labelInHeader=1;container=1;collapsible=0;recursiveResize=0;whiteSpace=wrap;" vertex="1" parent="1">
          <mxGeometry x="80" y="440" width="870" height="180" as="geometry" />
        </mxCell>
        <mxCell id="itVu1tEwa2cNqkqHf882-56" value="&lt;p style=&quot;margin: 0px; font-style: normal; font-variant-caps: normal; font-stretch: normal; line-height: normal; font-size-adjust: none; font-kerning: auto; font-variant-alternates: normal; font-variant-ligatures: normal; font-variant-numeric: normal; font-variant-east-asian: normal; font-variant-position: normal; font-variant-emoji: normal; font-feature-settings: normal; font-optical-sizing: auto; font-variation-settings: normal;&quot;&gt;«boundary» DatabaseConnection&lt;br&gt;&lt;/p&gt;" style="html=1;whiteSpace=wrap;" vertex="1" parent="itVu1tEwa2cNqkqHf882-51">
          <mxGeometry x="18" y="49.999999999999886" width="140" height="40" as="geometry" />
        </mxCell>
        <mxCell id="itVu1tEwa2cNqkqHf882-55" value="&lt;p style=&quot;margin: 0px; font-style: normal; font-variant-caps: normal; font-stretch: normal; line-height: normal; font-size-adjust: none; font-kerning: auto; font-variant-alternates: normal; font-variant-ligatures: normal; font-variant-numeric: normal; font-variant-east-asian: normal; font-variant-position: normal; font-variant-emoji: normal; font-feature-settings: normal; font-optical-sizing: auto; font-variation-settings: normal;&quot;&gt;«boundary» ExternalServiceConnector&lt;br&gt;&lt;/p&gt;" style="html=1;whiteSpace=wrap;" vertex="1" parent="itVu1tEwa2cNqkqHf882-51">
          <mxGeometry x="193" y="49.999999999999886" width="140" height="40" as="geometry" />
        </mxCell>
        <mxCell id="itVu1tEwa2cNqkqHf882-54" value="&lt;p style=&quot;margin: 0px; font-style: normal; font-variant-caps: normal; font-stretch: normal; line-height: normal; font-size-adjust: none; font-kerning: auto; font-variant-alternates: normal; font-variant-ligatures: normal; font-variant-numeric: normal; font-variant-east-asian: normal; font-variant-position: normal; font-variant-emoji: normal; font-feature-settings: normal; font-optical-sizing: auto; font-variation-settings: normal;&quot;&gt;«entity» Activity&lt;br&gt;&lt;/p&gt;" style="html=1;whiteSpace=wrap;" vertex="1" parent="itVu1tEwa2cNqkqHf882-51">
          <mxGeometry x="365" y="49.999999999999886" width="140" height="40" as="geometry" />
        </mxCell>
        <mxCell id="itVu1tEwa2cNqkqHf882-53" value="&lt;p style=&quot;margin: 0px; font-style: normal; font-variant-caps: normal; font-stretch: normal; line-height: normal; font-size-adjust: none; font-kerning: auto; font-variant-alternates: normal; font-variant-ligatures: normal; font-variant-numeric: normal; font-variant-east-asian: normal; font-variant-position: normal; font-variant-emoji: normal; font-feature-settings: normal; font-optical-sizing: auto; font-variation-settings: normal;&quot;&gt;«entity» Application&lt;br&gt;&lt;/p&gt;" style="html=1;whiteSpace=wrap;" vertex="1" parent="itVu1tEwa2cNqkqHf882-51">
          <mxGeometry x="538" y="49.999999999999886" width="140" height="40" as="geometry" />
        </mxCell>
        <mxCell id="itVu1tEwa2cNqkqHf882-59" value="&lt;p style=&quot;margin: 0px; font-style: normal; font-variant-caps: normal; font-stretch: normal; line-height: normal; font-size-adjust: none; font-kerning: auto; font-variant-alternates: normal; font-variant-ligatures: normal; font-variant-numeric: normal; font-variant-east-asian: normal; font-variant-position: normal; font-variant-emoji: normal; font-feature-settings: normal; font-optical-sizing: auto; font-variation-settings: normal;&quot;&gt;«entity» ReviewRecord&lt;br&gt;&lt;/p&gt;" style="html=1;whiteSpace=wrap;" vertex="1" parent="itVu1tEwa2cNqkqHf882-51">
          <mxGeometry x="708" y="49.999999999999886" width="140" height="40" as="geometry" />
        </mxCell>
        <mxCell id="itVu1tEwa2cNqkqHf882-58" value="&lt;p style=&quot;margin: 0px; font-style: normal; font-variant-caps: normal; font-stretch: normal; line-height: normal; font-size-adjust: none; font-kerning: auto; font-variant-alternates: normal; font-variant-ligatures: normal; font-variant-numeric: normal; font-variant-east-asian: normal; font-variant-position: normal; font-variant-emoji: normal; font-feature-settings: normal; font-optical-sizing: auto; font-variation-settings: normal;&quot;&gt;«entity» User&lt;br&gt;&lt;/p&gt;" style="html=1;whiteSpace=wrap;" vertex="1" parent="itVu1tEwa2cNqkqHf882-51">
          <mxGeometry x="18" y="109.99999999999989" width="140" height="40" as="geometry" />
        </mxCell>
        <mxCell id="itVu1tEwa2cNqkqHf882-60" value="&lt;p style=&quot;margin: 0px; font-style: normal; font-variant-caps: normal; font-stretch: normal; line-height: normal; font-size-adjust: none; font-kerning: auto; font-variant-alternates: normal; font-variant-ligatures: normal; font-variant-numeric: normal; font-variant-east-asian: normal; font-variant-position: normal; font-variant-emoji: normal; font-feature-settings: normal; font-optical-sizing: auto; font-variation-settings: normal;&quot;&gt;«entity» Log&lt;br&gt;&lt;/p&gt;" style="html=1;whiteSpace=wrap;" vertex="1" parent="itVu1tEwa2cNqkqHf882-51">
          <mxGeometry x="188" y="109.99999999999989" width="140" height="40" as="geometry" />
        </mxCell>
        <mxCell id="itVu1tEwa2cNqkqHf882-61" style="edgeStyle=none;curved=1;rounded=0;orthogonalLoop=1;jettySize=auto;html=1;exitX=0.25;exitY=1;exitDx=0;exitDy=0;exitPerimeter=0;fontSize=12;startSize=8;endSize=8;" edge="1" parent="1" source="itVu1tEwa2cNqkqHf882-3">
          <mxGeometry relative="1" as="geometry">
            <mxPoint x="298" y="290" as="targetPoint" />
          </mxGeometry>
        </mxCell>
        <mxCell id="itVu1tEwa2cNqkqHf882-62" style="edgeStyle=none;curved=1;rounded=0;orthogonalLoop=1;jettySize=auto;html=1;exitX=0;exitY=0;exitDx=495;exitDy=30;exitPerimeter=0;entryX=0.566;entryY=0.989;entryDx=0;entryDy=0;entryPerimeter=0;fontSize=12;startSize=8;endSize=8;" edge="1" parent="1" source="itVu1tEwa2cNqkqHf882-39" target="itVu1tEwa2cNqkqHf882-3">
          <mxGeometry relative="1" as="geometry" />
        </mxCell>
        <mxCell id="itVu1tEwa2cNqkqHf882-63" style="edgeStyle=none;curved=1;rounded=0;orthogonalLoop=1;jettySize=auto;html=1;exitX=0.25;exitY=1;exitDx=0;exitDy=0;exitPerimeter=0;fontSize=12;startSize=8;endSize=8;entryX=0.254;entryY=0.18;entryDx=0;entryDy=0;entryPerimeter=0;" edge="1" parent="1" target="itVu1tEwa2cNqkqHf882-51">
          <mxGeometry relative="1" as="geometry">
            <mxPoint x="300" y="370" as="sourcePoint" />
            <mxPoint x="300" y="450" as="targetPoint" />
          </mxGeometry>
        </mxCell>
        <mxCell id="itVu1tEwa2cNqkqHf882-64" style="edgeStyle=none;curved=1;rounded=0;orthogonalLoop=1;jettySize=auto;html=1;exitX=0;exitY=0;exitDx=495;exitDy=30;exitPerimeter=0;fontSize=12;startSize=8;endSize=8;entryX=0.556;entryY=1.004;entryDx=0;entryDy=0;entryPerimeter=0;" edge="1" parent="1" target="itVu1tEwa2cNqkqHf882-39">
          <mxGeometry relative="1" as="geometry">
            <mxPoint x="570" y="472" as="sourcePoint" />
            <mxPoint x="570" y="380" as="targetPoint" />
          </mxGeometry>
        </mxCell>
        <mxCell id="itVu1tEwa2cNqkqHf882-65" value="" style="html=1;verticalAlign=bottom;labelBackgroundColor=none;endArrow=open;endFill=0;dashed=1;rounded=0;fontSize=12;startSize=8;endSize=8;curved=1;exitX=0.25;exitY=1;exitDx=0;exitDy=0;exitPerimeter=0;entryX=0.928;entryY=0.471;entryDx=0;entryDy=0;entryPerimeter=0;" edge="1" parent="1" source="itVu1tEwa2cNqkqHf882-51" target="itVu1tEwa2cNqkqHf882-69">
          <mxGeometry width="160" relative="1" as="geometry">
            <mxPoint x="500" y="720" as="sourcePoint" />
            <mxPoint x="450" y="710" as="targetPoint" />
          </mxGeometry>
        </mxCell>
        <mxCell id="itVu1tEwa2cNqkqHf882-67" value="Application System" style="html=1;rounded=0;" vertex="1" parent="1">
          <mxGeometry x="510" y="670" width="155" height="50" as="geometry" />
        </mxCell>
        <mxCell id="itVu1tEwa2cNqkqHf882-68" value="" style="endArrow=none;html=1;rounded=0;align=center;verticalAlign=top;endFill=0;labelBackgroundColor=none;endSize=2;fontSize=12;curved=1;" edge="1" source="itVu1tEwa2cNqkqHf882-67" target="itVu1tEwa2cNqkqHf882-69" parent="1">
          <mxGeometry relative="1" as="geometry" />
        </mxCell>
        <mxCell id="itVu1tEwa2cNqkqHf882-69" value="" style="ellipse;html=1;fontSize=11;align=center;fillColor=none;points=[];aspect=fixed;resizable=0;verticalAlign=bottom;labelPosition=center;verticalLabelPosition=top;flipH=1;" vertex="1" parent="1">
          <mxGeometry x="450" y="691" width="8" height="8" as="geometry" />
        </mxCell>
      </root>
    </mxGraphModel>
  </diagram>
  <diagram id="P2fEEUI65PsWoEW5ajGM" name="第 4 页">
    <mxGraphModel dx="702" dy="481" grid="1" gridSize="10" guides="1" tooltips="1" connect="1" arrows="1" fold="1" page="1" pageScale="1" pageWidth="827" pageHeight="1169" math="0" shadow="0">
      <root>
        <mxCell id="0" />
        <mxCell id="1" parent="0" />
        <mxCell id="ToIoeRrlu8P66vgVPPJZ-272" value="VIP Member registration" style="shape=umlFrame;whiteSpace=wrap;html=1;pointerEvents=0;recursiveResize=0;container=1;collapsible=0;width=260;height=30;" vertex="1" parent="1">
          <mxGeometry x="10" y="10" width="800" height="1130" as="geometry" />
        </mxCell>
        <mxCell id="ToIoeRrlu8P66vgVPPJZ-273" value="&lt;p style=&quot;margin: 0px; font-style: normal; font-variant-caps: normal; font-stretch: normal; line-height: normal; font-size-adjust: none; font-kerning: auto; font-variant-alternates: normal; font-variant-ligatures: normal; font-variant-numeric: normal; font-variant-east-asian: normal; font-variant-position: normal; font-variant-emoji: normal; font-feature-settings: normal; font-optical-sizing: auto; font-variation-settings: normal;&quot;&gt;Activity&lt;/p&gt;" style="shape=umlLifeline;perimeter=lifelinePerimeter;whiteSpace=wrap;html=1;container=1;dropTarget=0;collapsible=0;recursiveResize=0;outlineConnect=0;portConstraint=eastwest;newEdgeStyle={&quot;edgeStyle&quot;:&quot;elbowEdgeStyle&quot;,&quot;elbow&quot;:&quot;vertical&quot;,&quot;curved&quot;:0,&quot;rounded&quot;:0};" vertex="1" parent="ToIoeRrlu8P66vgVPPJZ-272">
          <mxGeometry x="130" y="60" width="90" height="1010" as="geometry" />
        </mxCell>
        <mxCell id="ToIoeRrlu8P66vgVPPJZ-274" value="" style="html=1;points=[[0,0,0,0,5],[0,1,0,0,-5],[1,0,0,0,5],[1,1,0,0,-5]];perimeter=orthogonalPerimeter;outlineConnect=0;targetShapes=umlLifeline;portConstraint=eastwest;newEdgeStyle={&quot;curved&quot;:0,&quot;rounded&quot;:0};" vertex="1" parent="ToIoeRrlu8P66vgVPPJZ-273">
          <mxGeometry x="40" y="80" width="10" height="37" as="geometry" />
        </mxCell>
        <mxCell id="ToIoeRrlu8P66vgVPPJZ-275" value="&lt;p style=&quot;margin: 0px; font-style: normal; font-variant-caps: normal; font-stretch: normal; line-height: normal; font-size-adjust: none; font-kerning: auto; font-variant-alternates: normal; font-variant-ligatures: normal; font-variant-numeric: normal; font-variant-east-asian: normal; font-variant-position: normal; font-variant-emoji: normal; font-feature-settings: normal; font-optical-sizing: auto; font-variation-settings: normal;&quot;&gt;Auditor&lt;/p&gt;" style="shape=umlLifeline;perimeter=lifelinePerimeter;whiteSpace=wrap;html=1;container=1;dropTarget=0;collapsible=0;recursiveResize=0;outlineConnect=0;portConstraint=eastwest;newEdgeStyle={&quot;edgeStyle&quot;:&quot;elbowEdgeStyle&quot;,&quot;elbow&quot;:&quot;vertical&quot;,&quot;curved&quot;:0,&quot;rounded&quot;:0};" vertex="1" parent="ToIoeRrlu8P66vgVPPJZ-272">
          <mxGeometry x="20" y="60" width="90" height="1010" as="geometry" />
        </mxCell>
        <mxCell id="ToIoeRrlu8P66vgVPPJZ-276" value="" style="html=1;points=[[0,0,0,0,5],[0,1,0,0,-5],[1,0,0,0,5],[1,1,0,0,-5]];perimeter=orthogonalPerimeter;outlineConnect=0;targetShapes=umlLifeline;portConstraint=eastwest;newEdgeStyle={&quot;curved&quot;:0,&quot;rounded&quot;:0};" vertex="1" parent="ToIoeRrlu8P66vgVPPJZ-275">
          <mxGeometry x="40" y="58" width="10" height="32" as="geometry" />
        </mxCell>
        <mxCell id="ToIoeRrlu8P66vgVPPJZ-277" value="&lt;p style=&quot;margin: 0px; font-style: normal; font-variant-caps: normal; font-stretch: normal; line-height: normal; font-size-adjust: none; font-kerning: auto; font-variant-alternates: normal; font-variant-ligatures: normal; font-variant-numeric: normal; font-variant-east-asian: normal; font-variant-position: normal; font-variant-emoji: normal; font-feature-settings: normal; font-optical-sizing: auto; font-variation-settings: normal;&quot;&gt;Database&lt;/p&gt;" style="shape=umlLifeline;perimeter=lifelinePerimeter;whiteSpace=wrap;html=1;container=1;dropTarget=0;collapsible=0;recursiveResize=0;outlineConnect=0;portConstraint=eastwest;newEdgeStyle={&quot;edgeStyle&quot;:&quot;elbowEdgeStyle&quot;,&quot;elbow&quot;:&quot;vertical&quot;,&quot;curved&quot;:0,&quot;rounded&quot;:0};" vertex="1" parent="ToIoeRrlu8P66vgVPPJZ-272">
          <mxGeometry x="350" y="60" width="90" height="1010" as="geometry" />
        </mxCell>
        <mxCell id="ToIoeRrlu8P66vgVPPJZ-278" value="" style="html=1;points=[[0,0,0,0,5],[0,1,0,0,-5],[1,0,0,0,5],[1,1,0,0,-5]];perimeter=orthogonalPerimeter;outlineConnect=0;targetShapes=umlLifeline;portConstraint=eastwest;newEdgeStyle={&quot;curved&quot;:0,&quot;rounded&quot;:0};" vertex="1" parent="ToIoeRrlu8P66vgVPPJZ-277">
          <mxGeometry x="40" y="230" width="10" height="100" as="geometry" />
        </mxCell>
        <mxCell id="ToIoeRrlu8P66vgVPPJZ-279" value="&lt;p style=&quot;margin: 0px; font-style: normal; font-variant-caps: normal; font-stretch: normal; line-height: normal; font-size-adjust: none; font-kerning: auto; font-variant-alternates: normal; font-variant-ligatures: normal; font-variant-numeric: normal; font-variant-east-asian: normal; font-variant-position: normal; font-variant-emoji: normal; font-feature-settings: normal; font-optical-sizing: auto; font-variation-settings: normal;&quot;&gt;Review&lt;/p&gt;" style="shape=umlLifeline;perimeter=lifelinePerimeter;whiteSpace=wrap;html=1;container=1;dropTarget=0;collapsible=0;recursiveResize=0;outlineConnect=0;portConstraint=eastwest;newEdgeStyle={&quot;edgeStyle&quot;:&quot;elbowEdgeStyle&quot;,&quot;elbow&quot;:&quot;vertical&quot;,&quot;curved&quot;:0,&quot;rounded&quot;:0};" vertex="1" parent="ToIoeRrlu8P66vgVPPJZ-272">
          <mxGeometry x="240" y="60" width="90" height="1010" as="geometry" />
        </mxCell>
        <mxCell id="ToIoeRrlu8P66vgVPPJZ-280" value="" style="html=1;points=[[0,0,0,0,5],[0,1,0,0,-5],[1,0,0,0,5],[1,1,0,0,-5]];perimeter=orthogonalPerimeter;outlineConnect=0;targetShapes=umlLifeline;portConstraint=eastwest;newEdgeStyle={&quot;curved&quot;:0,&quot;rounded&quot;:0};" vertex="1" parent="ToIoeRrlu8P66vgVPPJZ-279">
          <mxGeometry x="40" y="100" width="10" height="40" as="geometry" />
        </mxCell>
        <mxCell id="ToIoeRrlu8P66vgVPPJZ-281" value="&lt;p style=&quot;margin: 0px; font-style: normal; font-variant-caps: normal; font-stretch: normal; line-height: normal; font-size-adjust: none; font-kerning: auto; font-variant-alternates: normal; font-variant-ligatures: normal; font-variant-numeric: normal; font-variant-east-asian: normal; font-variant-position: normal; font-variant-emoji: normal; font-feature-settings: normal; font-optical-sizing: auto; font-variation-settings: normal;&quot;&gt;支付服务&lt;/p&gt;" style="shape=umlLifeline;perimeter=lifelinePerimeter;whiteSpace=wrap;html=1;container=1;dropTarget=0;collapsible=0;recursiveResize=0;outlineConnect=0;portConstraint=eastwest;newEdgeStyle={&quot;edgeStyle&quot;:&quot;elbowEdgeStyle&quot;,&quot;elbow&quot;:&quot;vertical&quot;,&quot;curved&quot;:0,&quot;rounded&quot;:0};" vertex="1" parent="ToIoeRrlu8P66vgVPPJZ-272">
          <mxGeometry x="570" y="60" width="90" height="1010" as="geometry" />
        </mxCell>
        <mxCell id="ToIoeRrlu8P66vgVPPJZ-282" value="&lt;p style=&quot;margin: 0px; font-style: normal; font-variant-caps: normal; font-stretch: normal; line-height: normal; font-size-adjust: none; font-kerning: auto; font-variant-alternates: normal; font-variant-ligatures: normal; font-variant-numeric: normal; font-variant-east-asian: normal; font-variant-position: normal; font-variant-emoji: normal; font-feature-settings: normal; font-optical-sizing: auto; font-variation-settings: normal;&quot;&gt;Organize&lt;/p&gt;" style="shape=umlLifeline;perimeter=lifelinePerimeter;whiteSpace=wrap;html=1;container=1;dropTarget=0;collapsible=0;recursiveResize=0;outlineConnect=0;portConstraint=eastwest;newEdgeStyle={&quot;edgeStyle&quot;:&quot;elbowEdgeStyle&quot;,&quot;elbow&quot;:&quot;vertical&quot;,&quot;curved&quot;:0,&quot;rounded&quot;:0};" vertex="1" parent="ToIoeRrlu8P66vgVPPJZ-272">
          <mxGeometry x="460" y="60" width="90" height="1010" as="geometry" />
        </mxCell>
        <mxCell id="ToIoeRrlu8P66vgVPPJZ-283" value="&lt;p style=&quot;margin: 0px; font-style: normal; font-variant-caps: normal; font-stretch: normal; line-height: normal; font-size-adjust: none; font-kerning: auto; font-variant-alternates: normal; font-variant-ligatures: normal; font-variant-numeric: normal; font-variant-east-asian: normal; font-variant-position: normal; font-variant-emoji: normal; font-feature-settings: normal; font-optical-sizing: auto; font-variation-settings: normal;&quot;&gt;外部支付系统&lt;/p&gt;" style="shape=umlLifeline;perimeter=lifelinePerimeter;whiteSpace=wrap;html=1;container=1;dropTarget=0;collapsible=0;recursiveResize=0;outlineConnect=0;portConstraint=eastwest;newEdgeStyle={&quot;edgeStyle&quot;:&quot;elbowEdgeStyle&quot;,&quot;elbow&quot;:&quot;vertical&quot;,&quot;curved&quot;:0,&quot;rounded&quot;:0};" vertex="1" parent="ToIoeRrlu8P66vgVPPJZ-272">
          <mxGeometry x="680" y="60" width="90" height="1010" as="geometry" />
        </mxCell>
        <mxCell id="ToIoeRrlu8P66vgVPPJZ-284" value="" style="html=1;points=[[0,0,0,0,5],[0,1,0,0,-5],[1,0,0,0,5],[1,1,0,0,-5]];perimeter=orthogonalPerimeter;outlineConnect=0;targetShapes=umlLifeline;portConstraint=eastwest;newEdgeStyle={&quot;curved&quot;:0,&quot;rounded&quot;:0};" vertex="1" parent="ToIoeRrlu8P66vgVPPJZ-283">
          <mxGeometry x="40" y="530" width="10" height="30" as="geometry" />
        </mxCell>
        <mxCell id="ToIoeRrlu8P66vgVPPJZ-285" value="" style="endArrow=open;startArrow=none;endFill=0;startFill=0;endSize=8;html=1;verticalAlign=bottom;labelBackgroundColor=none;strokeWidth=1;rounded=0;" edge="1" parent="ToIoeRrlu8P66vgVPPJZ-272">
          <mxGeometry width="160" relative="1" as="geometry">
            <mxPoint x="70" y="142" as="sourcePoint" />
            <mxPoint x="170" y="142" as="targetPoint" />
          </mxGeometry>
        </mxCell>
        <mxCell id="ToIoeRrlu8P66vgVPPJZ-286" value="&lt;p style=&quot;margin: 0px; font-style: normal; font-variant-caps: normal; font-stretch: normal; line-height: normal; font-size-adjust: none; font-kerning: auto; font-variant-alternates: normal; font-variant-ligatures: normal; font-variant-numeric: normal; font-variant-east-asian: normal; font-variant-position: normal; font-variant-emoji: normal; font-feature-settings: normal; font-optical-sizing: auto; font-variation-settings: normal;&quot;&gt;获取注册页面&lt;/p&gt;" style="text;html=1;align=center;verticalAlign=middle;whiteSpace=wrap;rounded=0;" vertex="1" parent="ToIoeRrlu8P66vgVPPJZ-272">
          <mxGeometry x="80" y="118" width="80" height="20" as="geometry" />
        </mxCell>
        <mxCell id="ToIoeRrlu8P66vgVPPJZ-287" value="" style="endArrow=open;startArrow=none;endFill=0;startFill=0;endSize=8;html=1;verticalAlign=bottom;labelBackgroundColor=none;strokeWidth=1;rounded=0;" edge="1" parent="ToIoeRrlu8P66vgVPPJZ-272">
          <mxGeometry width="160" relative="1" as="geometry">
            <mxPoint x="180" y="160" as="sourcePoint" />
            <mxPoint x="280" y="160" as="targetPoint" />
          </mxGeometry>
        </mxCell>
        <mxCell id="ToIoeRrlu8P66vgVPPJZ-288" value="&lt;p style=&quot;margin: 0px; font-style: normal; font-variant-caps: normal; font-stretch: normal; line-height: normal; font-size-adjust: none; font-kerning: auto; font-variant-alternates: normal; font-variant-ligatures: normal; font-variant-numeric: normal; font-variant-east-asian: normal; font-variant-position: normal; font-variant-emoji: normal; font-feature-settings: normal; font-optical-sizing: auto; font-variation-settings: normal;&quot;&gt;提交注册信息&lt;/p&gt;" style="text;html=1;align=center;verticalAlign=middle;whiteSpace=wrap;rounded=0;" vertex="1" parent="ToIoeRrlu8P66vgVPPJZ-272">
          <mxGeometry x="190" y="138" width="80" height="20" as="geometry" />
        </mxCell>
        <mxCell id="ToIoeRrlu8P66vgVPPJZ-289" value="" style="endArrow=open;startArrow=none;endFill=0;startFill=0;endSize=8;html=1;verticalAlign=bottom;labelBackgroundColor=none;strokeWidth=1;rounded=0;" edge="1" parent="ToIoeRrlu8P66vgVPPJZ-272" target="ToIoeRrlu8P66vgVPPJZ-280">
          <mxGeometry width="160" relative="1" as="geometry">
            <mxPoint x="290" y="170" as="sourcePoint" />
            <mxPoint x="450" y="170" as="targetPoint" />
            <Array as="points">
              <mxPoint x="330" y="170" />
              <mxPoint x="330" y="190" />
              <mxPoint x="330" y="200" />
            </Array>
          </mxGeometry>
        </mxCell>
        <mxCell id="ToIoeRrlu8P66vgVPPJZ-290" value="&lt;p style=&quot;margin: 0px; font-style: normal; font-variant-caps: normal; font-stretch: normal; line-height: normal; font-size-adjust: none; font-kerning: auto; font-variant-alternates: normal; font-variant-ligatures: normal; font-variant-numeric: normal; font-variant-east-asian: normal; font-variant-position: normal; font-variant-emoji: normal; font-feature-settings: normal; font-optical-sizing: auto; font-variation-settings: normal;&quot;&gt;验证信息&lt;/p&gt;" style="text;html=1;align=center;verticalAlign=middle;whiteSpace=wrap;rounded=0;" vertex="1" parent="ToIoeRrlu8P66vgVPPJZ-272">
          <mxGeometry x="300" y="172" width="60" height="24" as="geometry" />
        </mxCell>
        <mxCell id="ToIoeRrlu8P66vgVPPJZ-291" value="Auditor" style="rounded=0;whiteSpace=wrap;html=1;" vertex="1" parent="ToIoeRrlu8P66vgVPPJZ-272">
          <mxGeometry x="20" y="1070" width="90" height="40" as="geometry" />
        </mxCell>
        <mxCell id="ToIoeRrlu8P66vgVPPJZ-292" value="Activity" style="rounded=0;whiteSpace=wrap;html=1;" vertex="1" parent="ToIoeRrlu8P66vgVPPJZ-272">
          <mxGeometry x="130" y="1070" width="90" height="40" as="geometry" />
        </mxCell>
        <mxCell id="ToIoeRrlu8P66vgVPPJZ-293" value="外部支付系统" style="rounded=0;whiteSpace=wrap;html=1;" vertex="1" parent="ToIoeRrlu8P66vgVPPJZ-272">
          <mxGeometry x="680" y="1070" width="90" height="40" as="geometry" />
        </mxCell>
        <mxCell id="ToIoeRrlu8P66vgVPPJZ-294" value="支付服务" style="rounded=0;whiteSpace=wrap;html=1;" vertex="1" parent="ToIoeRrlu8P66vgVPPJZ-272">
          <mxGeometry x="570" y="1070" width="90" height="40" as="geometry" />
        </mxCell>
        <mxCell id="ToIoeRrlu8P66vgVPPJZ-295" value="Review" style="rounded=0;whiteSpace=wrap;html=1;" vertex="1" parent="ToIoeRrlu8P66vgVPPJZ-272">
          <mxGeometry x="240" y="1070" width="90" height="40" as="geometry" />
        </mxCell>
        <mxCell id="ToIoeRrlu8P66vgVPPJZ-296" value="Database" style="rounded=0;whiteSpace=wrap;html=1;" vertex="1" parent="ToIoeRrlu8P66vgVPPJZ-272">
          <mxGeometry x="350" y="1070" width="90" height="40" as="geometry" />
        </mxCell>
        <mxCell id="ToIoeRrlu8P66vgVPPJZ-297" style="edgeStyle=orthogonalEdgeStyle;rounded=0;orthogonalLoop=1;jettySize=auto;html=1;exitX=0.5;exitY=1;exitDx=0;exitDy=0;" edge="1" parent="ToIoeRrlu8P66vgVPPJZ-272" source="ToIoeRrlu8P66vgVPPJZ-296" target="ToIoeRrlu8P66vgVPPJZ-296">
          <mxGeometry relative="1" as="geometry" />
        </mxCell>
        <mxCell id="ToIoeRrlu8P66vgVPPJZ-298" value="Organize" style="rounded=0;whiteSpace=wrap;html=1;" vertex="1" parent="ToIoeRrlu8P66vgVPPJZ-272">
          <mxGeometry x="460" y="1070" width="90" height="40" as="geometry" />
        </mxCell>
        <mxCell id="ToIoeRrlu8P66vgVPPJZ-299" value="alt" style="shape=umlFrame;whiteSpace=wrap;html=1;pointerEvents=0;recursiveResize=0;container=1;collapsible=0;width=60;height=30;" vertex="1" parent="1">
          <mxGeometry x="20" y="240" width="780" height="830" as="geometry" />
        </mxCell>
        <mxCell id="ToIoeRrlu8P66vgVPPJZ-300" value="【信息验证通过】" style="text;html=1;" vertex="1" parent="ToIoeRrlu8P66vgVPPJZ-299">
          <mxGeometry width="100" height="20" relative="1" as="geometry">
            <mxPoint x="335" y="3" as="offset" />
          </mxGeometry>
        </mxCell>
        <mxCell id="ToIoeRrlu8P66vgVPPJZ-301" value="" style="line;strokeWidth=1;dashed=1;labelPosition=center;verticalLabelPosition=bottom;align=left;verticalAlign=top;spacingLeft=20;spacingTop=15;html=1;whiteSpace=wrap;" vertex="1" parent="ToIoeRrlu8P66vgVPPJZ-299">
          <mxGeometry y="730" width="780" height="10" as="geometry" />
        </mxCell>
        <mxCell id="ToIoeRrlu8P66vgVPPJZ-302" value="" style="html=1;points=[[0,0,0,0,5],[0,1,0,0,-5],[1,0,0,0,5],[1,1,0,0,-5]];perimeter=orthogonalPerimeter;outlineConnect=0;targetShapes=umlLifeline;portConstraint=eastwest;newEdgeStyle={&quot;curved&quot;:0,&quot;rounded&quot;:0};" vertex="1" parent="ToIoeRrlu8P66vgVPPJZ-299">
          <mxGeometry x="270" y="40" width="10" height="230" as="geometry" />
        </mxCell>
        <mxCell id="ToIoeRrlu8P66vgVPPJZ-303" value="" style="endArrow=open;startArrow=none;endFill=0;startFill=0;endSize=8;html=1;verticalAlign=bottom;labelBackgroundColor=none;strokeWidth=1;rounded=0;" edge="1" parent="ToIoeRrlu8P66vgVPPJZ-299">
          <mxGeometry width="160" relative="1" as="geometry">
            <mxPoint x="280" y="60" as="sourcePoint" />
            <mxPoint x="380" y="60" as="targetPoint" />
          </mxGeometry>
        </mxCell>
        <mxCell id="ToIoeRrlu8P66vgVPPJZ-304" value="&lt;p style=&quot;margin: 0px; font-style: normal; font-variant-caps: normal; font-stretch: normal; line-height: normal; font-size-adjust: none; font-kerning: auto; font-variant-alternates: normal; font-variant-ligatures: normal; font-variant-numeric: normal; font-variant-east-asian: normal; font-variant-position: normal; font-variant-emoji: normal; font-feature-settings: normal; font-optical-sizing: auto; font-variation-settings: normal;&quot;&gt;保存会员信息&lt;/p&gt;" style="text;html=1;align=center;verticalAlign=middle;whiteSpace=wrap;rounded=0;" vertex="1" parent="ToIoeRrlu8P66vgVPPJZ-299">
          <mxGeometry x="290" y="37" width="80" height="20" as="geometry" />
        </mxCell>
        <mxCell id="ToIoeRrlu8P66vgVPPJZ-305" value="" style="endArrow=open;startArrow=none;endFill=0;startFill=0;endSize=8;html=1;verticalAlign=bottom;labelBackgroundColor=none;strokeWidth=1;rounded=0;" edge="1" parent="ToIoeRrlu8P66vgVPPJZ-299">
          <mxGeometry width="160" relative="1" as="geometry">
            <mxPoint x="380" y="90" as="sourcePoint" />
            <mxPoint x="280" y="90" as="targetPoint" />
          </mxGeometry>
        </mxCell>
        <mxCell id="ToIoeRrlu8P66vgVPPJZ-306" value="&lt;p style=&quot;margin: 0px; font-style: normal; font-variant-caps: normal; font-stretch: normal; line-height: normal; font-size-adjust: none; font-kerning: auto; font-variant-alternates: normal; font-variant-ligatures: normal; font-variant-numeric: normal; font-variant-east-asian: normal; font-variant-position: normal; font-variant-emoji: normal; font-feature-settings: normal; font-optical-sizing: auto; font-variation-settings: normal;&quot;&gt;保存成功返回&lt;/p&gt;" style="text;html=1;align=center;verticalAlign=middle;whiteSpace=wrap;rounded=0;" vertex="1" parent="ToIoeRrlu8P66vgVPPJZ-299">
          <mxGeometry x="290" y="70" width="80" height="20" as="geometry" />
        </mxCell>
        <mxCell id="ToIoeRrlu8P66vgVPPJZ-307" value="" style="endArrow=open;startArrow=none;endFill=0;startFill=0;endSize=8;html=1;verticalAlign=bottom;labelBackgroundColor=none;strokeWidth=1;rounded=0;" edge="1" parent="ToIoeRrlu8P66vgVPPJZ-299">
          <mxGeometry width="160" relative="1" as="geometry">
            <mxPoint x="280" y="123" as="sourcePoint" />
            <mxPoint x="380" y="123" as="targetPoint" />
          </mxGeometry>
        </mxCell>
        <mxCell id="ToIoeRrlu8P66vgVPPJZ-308" value="&lt;p style=&quot;margin: 0px; font-style: normal; font-variant-caps: normal; font-stretch: normal; line-height: normal; font-size-adjust: none; font-kerning: auto; font-variant-alternates: normal; font-variant-ligatures: normal; font-variant-numeric: normal; font-variant-east-asian: normal; font-variant-position: normal; font-variant-emoji: normal; font-feature-settings: normal; font-optical-sizing: auto; font-variation-settings: normal;&quot;&gt;更新状态为待支付&lt;/p&gt;" style="text;html=1;align=center;verticalAlign=middle;whiteSpace=wrap;rounded=0;" vertex="1" parent="ToIoeRrlu8P66vgVPPJZ-299">
          <mxGeometry x="280" y="100" width="100" height="20" as="geometry" />
        </mxCell>
        <mxCell id="ToIoeRrlu8P66vgVPPJZ-309" value="" style="endArrow=open;startArrow=none;endFill=0;startFill=0;endSize=8;html=1;verticalAlign=bottom;labelBackgroundColor=none;strokeWidth=1;rounded=0;" edge="1" parent="ToIoeRrlu8P66vgVPPJZ-299">
          <mxGeometry width="160" relative="1" as="geometry">
            <mxPoint x="380" y="153" as="sourcePoint" />
            <mxPoint x="280" y="153" as="targetPoint" />
          </mxGeometry>
        </mxCell>
        <mxCell id="ToIoeRrlu8P66vgVPPJZ-310" value="&lt;p style=&quot;margin: 0px; font-style: normal; font-variant-caps: normal; font-stretch: normal; line-height: normal; font-size-adjust: none; font-kerning: auto; font-variant-alternates: normal; font-variant-ligatures: normal; font-variant-numeric: normal; font-variant-east-asian: normal; font-variant-position: normal; font-variant-emoji: normal; font-feature-settings: normal; font-optical-sizing: auto; font-variation-settings: normal;&quot;&gt;更新成功返回&lt;/p&gt;" style="text;html=1;align=center;verticalAlign=middle;whiteSpace=wrap;rounded=0;" vertex="1" parent="ToIoeRrlu8P66vgVPPJZ-299">
          <mxGeometry x="290" y="133" width="80" height="20" as="geometry" />
        </mxCell>
        <mxCell id="ToIoeRrlu8P66vgVPPJZ-311" value="" style="html=1;points=[[0,0,0,0,5],[0,1,0,0,-5],[1,0,0,0,5],[1,1,0,0,-5]];perimeter=orthogonalPerimeter;outlineConnect=0;targetShapes=umlLifeline;portConstraint=eastwest;newEdgeStyle={&quot;curved&quot;:0,&quot;rounded&quot;:0};" vertex="1" parent="ToIoeRrlu8P66vgVPPJZ-299">
          <mxGeometry x="600" y="190" width="10" height="30" as="geometry" />
        </mxCell>
        <mxCell id="ToIoeRrlu8P66vgVPPJZ-312" value="" style="endArrow=open;startArrow=none;endFill=0;startFill=0;endSize=8;html=1;verticalAlign=bottom;labelBackgroundColor=none;strokeWidth=1;rounded=0;" edge="1" parent="ToIoeRrlu8P66vgVPPJZ-299" target="ToIoeRrlu8P66vgVPPJZ-311">
          <mxGeometry width="160" relative="1" as="geometry">
            <mxPoint x="280" y="191.57999999999998" as="sourcePoint" />
            <mxPoint x="440" y="191.57999999999998" as="targetPoint" />
          </mxGeometry>
        </mxCell>
        <mxCell id="ToIoeRrlu8P66vgVPPJZ-313" value="&lt;p style=&quot;margin: 0px; font-style: normal; font-variant-caps: normal; font-stretch: normal; line-height: normal; font-size-adjust: none; font-kerning: auto; font-variant-alternates: normal; font-variant-ligatures: normal; font-variant-numeric: normal; font-variant-east-asian: normal; font-variant-position: normal; font-variant-emoji: normal; font-feature-settings: normal; font-optical-sizing: auto; font-variation-settings: normal;&quot;&gt;生成支付订单&lt;/p&gt;" style="text;html=1;align=center;verticalAlign=middle;whiteSpace=wrap;rounded=0;" vertex="1" parent="ToIoeRrlu8P66vgVPPJZ-299">
          <mxGeometry x="400" y="170" width="80" height="20" as="geometry" />
        </mxCell>
        <mxCell id="ToIoeRrlu8P66vgVPPJZ-314" value="" style="html=1;points=[[0,0,0,0,5],[0,1,0,0,-5],[1,0,0,0,5],[1,1,0,0,-5]];perimeter=orthogonalPerimeter;outlineConnect=0;targetShapes=umlLifeline;portConstraint=eastwest;newEdgeStyle={&quot;curved&quot;:0,&quot;rounded&quot;:0};" vertex="1" parent="ToIoeRrlu8P66vgVPPJZ-299">
          <mxGeometry x="160" y="256" width="10" height="100" as="geometry" />
        </mxCell>
        <mxCell id="ToIoeRrlu8P66vgVPPJZ-315" value="" style="endArrow=open;startArrow=none;endFill=0;startFill=0;endSize=8;html=1;verticalAlign=bottom;labelBackgroundColor=none;strokeWidth=1;rounded=0;" edge="1" parent="ToIoeRrlu8P66vgVPPJZ-299">
          <mxGeometry width="160" relative="1" as="geometry">
            <mxPoint x="270" y="257" as="sourcePoint" />
            <mxPoint x="170" y="257" as="targetPoint" />
          </mxGeometry>
        </mxCell>
        <mxCell id="ToIoeRrlu8P66vgVPPJZ-316" value="&lt;p style=&quot;margin: 0px; font-style: normal; font-variant-caps: normal; font-stretch: normal; line-height: normal; font-size-adjust: none; font-kerning: auto; font-variant-alternates: normal; font-variant-ligatures: normal; font-variant-numeric: normal; font-variant-east-asian: normal; font-variant-position: normal; font-variant-emoji: normal; font-feature-settings: normal; font-optical-sizing: auto; font-variation-settings: normal;&quot;&gt;返回支付结果&lt;/p&gt;" style="text;html=1;align=center;verticalAlign=middle;whiteSpace=wrap;rounded=0;" vertex="1" parent="ToIoeRrlu8P66vgVPPJZ-299">
          <mxGeometry x="180" y="238" width="80" height="20" as="geometry" />
        </mxCell>
        <mxCell id="ToIoeRrlu8P66vgVPPJZ-317" value="" style="html=1;points=[[0,0,0,0,5],[0,1,0,0,-5],[1,0,0,0,5],[1,1,0,0,-5]];perimeter=orthogonalPerimeter;outlineConnect=0;targetShapes=umlLifeline;portConstraint=eastwest;newEdgeStyle={&quot;curved&quot;:0,&quot;rounded&quot;:0};" vertex="1" parent="ToIoeRrlu8P66vgVPPJZ-299">
          <mxGeometry x="50" y="290" width="10" height="40" as="geometry" />
        </mxCell>
        <mxCell id="ToIoeRrlu8P66vgVPPJZ-318" value="" style="endArrow=open;startArrow=none;endFill=0;startFill=0;endSize=8;html=1;verticalAlign=bottom;labelBackgroundColor=none;strokeWidth=1;rounded=0;" edge="1" parent="ToIoeRrlu8P66vgVPPJZ-299">
          <mxGeometry width="160" relative="1" as="geometry">
            <mxPoint x="160" y="289" as="sourcePoint" />
            <mxPoint x="60" y="289" as="targetPoint" />
          </mxGeometry>
        </mxCell>
        <mxCell id="ToIoeRrlu8P66vgVPPJZ-319" value="&lt;p style=&quot;margin: 0px; font-style: normal; font-variant-caps: normal; font-stretch: normal; line-height: normal; font-size-adjust: none; font-kerning: auto; font-variant-alternates: normal; font-variant-ligatures: normal; font-variant-numeric: normal; font-variant-east-asian: normal; font-variant-position: normal; font-variant-emoji: normal; font-feature-settings: normal; font-optical-sizing: auto; font-variation-settings: normal;&quot;&gt;显示&lt;span style=&quot;caret-color: rgba(0, 0, 0, 0); color: rgba(0, 0, 0, 0); font-family: monospace; font-size: 0px; text-align: start; white-space: nowrap;&quot;&gt;%3CmxGraphModel%3E%3Croot%3E%3CmxCell%20id%3D%220%22%2F%3E%3CmxCell%20id%3D%221%22%20parent%3D%220%22%2F%3E%3CmxCell%20id%3D%222%22%20value%3D%22%22%20style%3D%22endArrow%3Dopen%3BstartArrow%3Dnone%3BendFill%3D0%3BstartFill%3D0%3BendSize%3D8%3Bhtml%3D1%3BverticalAlign%3Dbottom%3BlabelBackgroundColor%3Dnone%3BstrokeWidth%3D1%3Brounded%3D0%3B%22%20edge%3D%221%22%20parent%3D%221%22%3E%3CmxGeometry%20width%3D%22160%22%20relative%3D%221%22%20as%3D%22geometry%22%3E%3CmxPoint%20x%3D%22290%22%20y%3D%22497%22%20as%3D%22sourcePoint%22%2F%3E%3CmxPoint%20x%3D%22190%22%20y%3D%22497%22%20as%3D%22targetPoint%22%2F%3E%3C%2FmxGeometry%3E%3C%2FmxCell%3E%3CmxCell%20id%3D%223%22%20value%3D%22%26lt%3Bp%20style%3D%26quot%3Bmargin%3A%200px%3B%20font-style%3A%20normal%3B%20font-variant-caps%3A%20normal%3B%20font-stretch%3A%20normal%3B%20line-height%3A%20normal%3B%20font-size-adjust%3A%20none%3B%20font-kerning%3A%20auto%3B%20font-variant-alternates%3A%20normal%3B%20font-variant-ligatures%3A%20normal%3B%20font-variant-numeric%3A%20normal%3B%20font-variant-east-asian%3A%20normal%3B%20font-variant-position%3A%20normal%3B%20font-variant-emoji%3A%20normal%3B%20font-feature-settings%3A%20normal%3B%20font-optical-sizing%3A%20auto%3B%20font-variation-settings%3A%20normal%3B%26quot%3B%26gt%3B%E8%BF%94%E5%9B%9E%E6%94%AF%E4%BB%98%E7%BB%93%E6%9E%9C%26lt%3B%2Fp%26gt%3B%22%20style%3D%22text%3Bhtml%3D1%3Balign%3Dcenter%3BverticalAlign%3Dmiddle%3BwhiteSpace%3Dwrap%3Brounded%3D0%3B%22%20vertex%3D%221%22%20parent%3D%221%22%3E%3CmxGeometry%20x%3D%22200%22%20y%3D%22478%22%20width%3D%2280%22%20height%3D%2220%22%20as%3D%22geometry%22%2F%3E%3C%2FmxCell%3E%3C%2Froot%3E%3C%2FmxGraphModel%3E&lt;/span&gt;支付页面&lt;/p&gt;" style="text;html=1;align=center;verticalAlign=middle;whiteSpace=wrap;rounded=0;" vertex="1" parent="ToIoeRrlu8P66vgVPPJZ-299">
          <mxGeometry x="70" y="270" width="80" height="20" as="geometry" />
        </mxCell>
        <mxCell id="ToIoeRrlu8P66vgVPPJZ-320" value="&lt;p style=&quot;margin: 0px; font-style: normal; font-variant-caps: normal; font-stretch: normal; line-height: normal; font-size-adjust: none; font-kerning: auto; font-variant-alternates: normal; font-variant-ligatures: normal; font-variant-numeric: normal; font-variant-east-asian: normal; font-variant-position: normal; font-variant-emoji: normal; font-feature-settings: normal; font-optical-sizing: auto; font-variation-settings: normal;&quot;&gt;发起支付&lt;/p&gt;" style="text;html=1;align=center;verticalAlign=middle;whiteSpace=wrap;rounded=0;" vertex="1" parent="ToIoeRrlu8P66vgVPPJZ-299">
          <mxGeometry x="70" y="310" width="80" height="20" as="geometry" />
        </mxCell>
        <mxCell id="ToIoeRrlu8P66vgVPPJZ-321" value="" style="endArrow=open;startArrow=none;endFill=0;startFill=0;endSize=8;html=1;verticalAlign=bottom;labelBackgroundColor=none;strokeWidth=1;rounded=0;" edge="1" parent="ToIoeRrlu8P66vgVPPJZ-299" target="ToIoeRrlu8P66vgVPPJZ-314">
          <mxGeometry width="160" relative="1" as="geometry">
            <mxPoint x="60" y="330" as="sourcePoint" />
            <mxPoint x="220" y="330" as="targetPoint" />
          </mxGeometry>
        </mxCell>
        <mxCell id="ToIoeRrlu8P66vgVPPJZ-322" value="" style="html=1;points=[[0,0,0,0,5],[0,1,0,0,-5],[1,0,0,0,5],[1,1,0,0,-5]];perimeter=orthogonalPerimeter;outlineConnect=0;targetShapes=umlLifeline;portConstraint=eastwest;newEdgeStyle={&quot;curved&quot;:0,&quot;rounded&quot;:0};" vertex="1" parent="ToIoeRrlu8P66vgVPPJZ-299">
          <mxGeometry x="600" y="350" width="10" height="40" as="geometry" />
        </mxCell>
        <mxCell id="ToIoeRrlu8P66vgVPPJZ-323" value="" style="endArrow=open;startArrow=none;endFill=0;startFill=0;endSize=8;html=1;verticalAlign=bottom;labelBackgroundColor=none;strokeWidth=1;rounded=0;" edge="1" parent="ToIoeRrlu8P66vgVPPJZ-299" target="ToIoeRrlu8P66vgVPPJZ-322">
          <mxGeometry width="160" relative="1" as="geometry">
            <mxPoint x="170" y="350" as="sourcePoint" />
            <mxPoint x="330" y="350" as="targetPoint" />
          </mxGeometry>
        </mxCell>
        <mxCell id="ToIoeRrlu8P66vgVPPJZ-324" value="&lt;p style=&quot;margin: 0px; font-style: normal; font-variant-caps: normal; font-stretch: normal; line-height: normal; font-size-adjust: none; font-kerning: auto; font-variant-alternates: normal; font-variant-ligatures: normal; font-variant-numeric: normal; font-variant-east-asian: normal; font-variant-position: normal; font-variant-emoji: normal; font-feature-settings: normal; font-optical-sizing: auto; font-variation-settings: normal;&quot;&gt;处理支付&lt;/p&gt;" style="text;html=1;align=center;verticalAlign=middle;whiteSpace=wrap;rounded=0;" vertex="1" parent="ToIoeRrlu8P66vgVPPJZ-299">
          <mxGeometry x="345" y="330" width="80" height="20" as="geometry" />
        </mxCell>
        <mxCell id="ToIoeRrlu8P66vgVPPJZ-325" value="&lt;p style=&quot;margin: 0px; font-style: normal; font-variant-caps: normal; font-stretch: normal; line-height: normal; font-size-adjust: none; font-kerning: auto; font-variant-alternates: normal; font-variant-ligatures: normal; font-variant-numeric: normal; font-variant-east-asian: normal; font-variant-position: normal; font-variant-emoji: normal; font-feature-settings: normal; font-optical-sizing: auto; font-variation-settings: normal;&quot;&gt;调用支付接口&lt;/p&gt;" style="text;html=1;align=center;verticalAlign=middle;whiteSpace=wrap;rounded=0;" vertex="1" parent="ToIoeRrlu8P66vgVPPJZ-299">
          <mxGeometry x="620" y="345" width="80" height="20" as="geometry" />
        </mxCell>
        <mxCell id="ToIoeRrlu8P66vgVPPJZ-326" value="" style="endArrow=open;startArrow=none;endFill=0;startFill=0;endSize=8;html=1;verticalAlign=bottom;labelBackgroundColor=none;strokeWidth=1;rounded=0;" edge="1" parent="ToIoeRrlu8P66vgVPPJZ-299">
          <mxGeometry width="160" relative="1" as="geometry">
            <mxPoint x="610" y="365" as="sourcePoint" />
            <mxPoint x="710" y="365" as="targetPoint" />
          </mxGeometry>
        </mxCell>
        <mxCell id="ToIoeRrlu8P66vgVPPJZ-327" value="" style="endArrow=open;startArrow=none;endFill=0;startFill=0;endSize=8;html=1;verticalAlign=bottom;labelBackgroundColor=none;strokeWidth=1;rounded=0;" edge="1" parent="ToIoeRrlu8P66vgVPPJZ-299">
          <mxGeometry width="160" relative="1" as="geometry">
            <mxPoint x="710" y="390" as="sourcePoint" />
            <mxPoint x="610" y="390" as="targetPoint" />
          </mxGeometry>
        </mxCell>
        <mxCell id="ToIoeRrlu8P66vgVPPJZ-328" value="&lt;p style=&quot;margin: 0px; font-style: normal; font-variant-caps: normal; font-stretch: normal; line-height: normal; font-size-adjust: none; font-kerning: auto; font-variant-alternates: normal; font-variant-ligatures: normal; font-variant-numeric: normal; font-variant-east-asian: normal; font-variant-position: normal; font-variant-emoji: normal; font-feature-settings: normal; font-optical-sizing: auto; font-variation-settings: normal;&quot;&gt;支付结束&lt;/p&gt;" style="text;html=1;align=center;verticalAlign=middle;whiteSpace=wrap;rounded=0;" vertex="1" parent="ToIoeRrlu8P66vgVPPJZ-299">
          <mxGeometry x="620" y="370" width="80" height="20" as="geometry" />
        </mxCell>
        <mxCell id="ToIoeRrlu8P66vgVPPJZ-329" value="alt" style="shape=umlFrame;whiteSpace=wrap;html=1;pointerEvents=0;recursiveResize=0;container=1;collapsible=0;width=60;height=30;" vertex="1" parent="ToIoeRrlu8P66vgVPPJZ-299">
          <mxGeometry x="10" y="420" width="770" height="300" as="geometry" />
        </mxCell>
        <mxCell id="ToIoeRrlu8P66vgVPPJZ-330" value="【支付成功】" style="text;html=1;" vertex="1" parent="ToIoeRrlu8P66vgVPPJZ-329">
          <mxGeometry width="80" height="20" relative="1" as="geometry">
            <mxPoint x="290" as="offset" />
          </mxGeometry>
        </mxCell>
        <mxCell id="ToIoeRrlu8P66vgVPPJZ-331" value="" style="line;strokeWidth=1;dashed=1;labelPosition=center;verticalLabelPosition=bottom;align=left;verticalAlign=top;spacingLeft=20;spacingTop=15;html=1;whiteSpace=wrap;" vertex="1" parent="ToIoeRrlu8P66vgVPPJZ-329">
          <mxGeometry y="190" width="770" height="10" as="geometry" />
        </mxCell>
        <mxCell id="ToIoeRrlu8P66vgVPPJZ-332" value="" style="html=1;points=[[0,0,0,0,5],[0,1,0,0,-5],[1,0,0,0,5],[1,1,0,0,-5]];perimeter=orthogonalPerimeter;outlineConnect=0;targetShapes=umlLifeline;portConstraint=eastwest;newEdgeStyle={&quot;curved&quot;:0,&quot;rounded&quot;:0};" vertex="1" parent="ToIoeRrlu8P66vgVPPJZ-329">
          <mxGeometry x="260" y="50" width="10" height="90" as="geometry" />
        </mxCell>
        <mxCell id="ToIoeRrlu8P66vgVPPJZ-333" value="" style="html=1;points=[[0,0,0,0,5],[0,1,0,0,-5],[1,0,0,0,5],[1,1,0,0,-5]];perimeter=orthogonalPerimeter;outlineConnect=0;targetShapes=umlLifeline;portConstraint=eastwest;newEdgeStyle={&quot;curved&quot;:0,&quot;rounded&quot;:0};" vertex="1" parent="ToIoeRrlu8P66vgVPPJZ-329">
          <mxGeometry x="370" y="90" width="10" height="41" as="geometry" />
        </mxCell>
        <mxCell id="ToIoeRrlu8P66vgVPPJZ-334" value="" style="html=1;points=[[0,0,0,0,5],[0,1,0,0,-5],[1,0,0,0,5],[1,1,0,0,-5]];perimeter=orthogonalPerimeter;outlineConnect=0;targetShapes=umlLifeline;portConstraint=eastwest;newEdgeStyle={&quot;curved&quot;:0,&quot;rounded&quot;:0};" vertex="1" parent="ToIoeRrlu8P66vgVPPJZ-329">
          <mxGeometry x="480" y="170" width="10" height="20" as="geometry" />
        </mxCell>
        <mxCell id="ToIoeRrlu8P66vgVPPJZ-335" value="" style="html=1;points=[[0,0,0,0,5],[0,1,0,0,-5],[1,0,0,0,5],[1,1,0,0,-5]];perimeter=orthogonalPerimeter;outlineConnect=0;targetShapes=umlLifeline;portConstraint=eastwest;newEdgeStyle={&quot;curved&quot;:0,&quot;rounded&quot;:0};" vertex="1" parent="ToIoeRrlu8P66vgVPPJZ-329">
          <mxGeometry x="590" y="30" width="10" height="30" as="geometry" />
        </mxCell>
        <mxCell id="ToIoeRrlu8P66vgVPPJZ-336" value="&lt;p style=&quot;margin: 0px; font-style: normal; font-variant-caps: normal; font-stretch: normal; line-height: normal; font-size-adjust: none; font-kerning: auto; font-variant-alternates: normal; font-variant-ligatures: normal; font-variant-numeric: normal; font-variant-east-asian: normal; font-variant-position: normal; font-variant-emoji: normal; font-feature-settings: normal; font-optical-sizing: auto; font-variation-settings: normal;&quot;&gt;通知支付成功&lt;/p&gt;" style="text;html=1;align=center;verticalAlign=middle;whiteSpace=wrap;rounded=0;" vertex="1" parent="ToIoeRrlu8P66vgVPPJZ-329">
          <mxGeometry x="390" y="32" width="80" height="20" as="geometry" />
        </mxCell>
        <mxCell id="ToIoeRrlu8P66vgVPPJZ-337" value="" style="endArrow=open;startArrow=none;endFill=0;startFill=0;endSize=8;html=1;verticalAlign=bottom;labelBackgroundColor=none;strokeWidth=1;rounded=0;" edge="1" parent="ToIoeRrlu8P66vgVPPJZ-329">
          <mxGeometry width="160" relative="1" as="geometry">
            <mxPoint x="590" y="53.00000000000023" as="sourcePoint" />
            <mxPoint x="270" y="53.00000000000023" as="targetPoint" />
          </mxGeometry>
        </mxCell>
        <mxCell id="ToIoeRrlu8P66vgVPPJZ-338" value="" style="endArrow=open;startArrow=none;endFill=0;startFill=0;endSize=8;html=1;verticalAlign=bottom;labelBackgroundColor=none;strokeWidth=1;rounded=0;" edge="1" parent="ToIoeRrlu8P66vgVPPJZ-329">
          <mxGeometry width="160" relative="1" as="geometry">
            <mxPoint x="270" y="89" as="sourcePoint" />
            <mxPoint x="370" y="89" as="targetPoint" />
          </mxGeometry>
        </mxCell>
        <mxCell id="ToIoeRrlu8P66vgVPPJZ-339" value="&lt;p style=&quot;margin: 0px; font-style: normal; font-variant-caps: normal; font-stretch: normal; line-height: normal; font-size-adjust: none; font-kerning: auto; font-variant-alternates: normal; font-variant-ligatures: normal; font-variant-numeric: normal; font-variant-east-asian: normal; font-variant-position: normal; font-variant-emoji: normal; font-feature-settings: normal; font-optical-sizing: auto; font-variation-settings: normal;&quot;&gt;更新状态为已激活&lt;/p&gt;" style="text;html=1;align=center;verticalAlign=middle;whiteSpace=wrap;rounded=0;" vertex="1" parent="ToIoeRrlu8P66vgVPPJZ-329">
          <mxGeometry x="270" y="66" width="100" height="20" as="geometry" />
        </mxCell>
        <mxCell id="ToIoeRrlu8P66vgVPPJZ-340" value="" style="endArrow=open;startArrow=none;endFill=0;startFill=0;endSize=8;html=1;verticalAlign=bottom;labelBackgroundColor=none;strokeWidth=1;rounded=0;" edge="1" parent="ToIoeRrlu8P66vgVPPJZ-329">
          <mxGeometry width="160" relative="1" as="geometry">
            <mxPoint x="370" y="120" as="sourcePoint" />
            <mxPoint x="270" y="120" as="targetPoint" />
          </mxGeometry>
        </mxCell>
        <mxCell id="ToIoeRrlu8P66vgVPPJZ-341" value="&lt;p style=&quot;margin: 0px; font-style: normal; font-variant-caps: normal; font-stretch: normal; line-height: normal; font-size-adjust: none; font-kerning: auto; font-variant-alternates: normal; font-variant-ligatures: normal; font-variant-numeric: normal; font-variant-east-asian: normal; font-variant-position: normal; font-variant-emoji: normal; font-feature-settings: normal; font-optical-sizing: auto; font-variation-settings: normal;&quot;&gt;更新成功返回&lt;/p&gt;" style="text;html=1;align=center;verticalAlign=middle;whiteSpace=wrap;rounded=0;" vertex="1" parent="ToIoeRrlu8P66vgVPPJZ-329">
          <mxGeometry x="280" y="100" width="80" height="20" as="geometry" />
        </mxCell>
        <mxCell id="ToIoeRrlu8P66vgVPPJZ-342" value="" style="endArrow=open;startArrow=none;endFill=0;startFill=0;endSize=8;html=1;verticalAlign=bottom;labelBackgroundColor=none;strokeWidth=1;rounded=0;" edge="1" parent="ToIoeRrlu8P66vgVPPJZ-329">
          <mxGeometry width="160" relative="1" as="geometry">
            <mxPoint x="260" y="246.36999999999992" as="sourcePoint" />
            <mxPoint x="480" y="246.3699999999999" as="targetPoint" />
          </mxGeometry>
        </mxCell>
        <mxCell id="ToIoeRrlu8P66vgVPPJZ-343" value="&lt;p style=&quot;margin: 0px; font-style: normal; font-variant-caps: normal; font-stretch: normal; line-height: normal; font-size-adjust: none; font-kerning: auto; font-variant-alternates: normal; font-variant-ligatures: normal; font-variant-numeric: normal; font-variant-east-asian: normal; font-variant-position: normal; font-variant-emoji: normal; font-feature-settings: normal; font-optical-sizing: auto; font-variation-settings: normal;&quot;&gt;通知支付失败&lt;/p&gt;" style="text;html=1;align=center;verticalAlign=middle;whiteSpace=wrap;rounded=0;" vertex="1" parent="ToIoeRrlu8P66vgVPPJZ-329">
          <mxGeometry x="325" y="225" width="80" height="20" as="geometry" />
        </mxCell>
        <mxCell id="ToIoeRrlu8P66vgVPPJZ-344" value="&lt;p style=&quot;margin: 0px; font-style: normal; font-variant-caps: normal; font-stretch: normal; line-height: normal; font-size-adjust: none; font-kerning: auto; font-variant-alternates: normal; font-variant-ligatures: normal; font-variant-numeric: normal; font-variant-east-asian: normal; font-variant-position: normal; font-variant-emoji: normal; font-feature-settings: normal; font-optical-sizing: auto; font-variation-settings: normal;&quot;&gt;推送短信&lt;/p&gt;" style="text;html=1;align=center;verticalAlign=middle;whiteSpace=wrap;rounded=0;" vertex="1" parent="ToIoeRrlu8P66vgVPPJZ-329">
          <mxGeometry x="225" y="163.5" width="80" height="20" as="geometry" />
        </mxCell>
        <mxCell id="ToIoeRrlu8P66vgVPPJZ-345" value="" style="endArrow=open;startArrow=none;endFill=0;startFill=0;endSize=8;html=1;verticalAlign=bottom;labelBackgroundColor=none;strokeWidth=1;rounded=0;" edge="1" parent="ToIoeRrlu8P66vgVPPJZ-329" target="ToIoeRrlu8P66vgVPPJZ-346">
          <mxGeometry width="160" relative="1" as="geometry">
            <mxPoint x="480" y="183.00000000000023" as="sourcePoint" />
            <mxPoint x="160" y="183.00000000000023" as="targetPoint" />
          </mxGeometry>
        </mxCell>
        <mxCell id="ToIoeRrlu8P66vgVPPJZ-346" value="" style="html=1;points=[[0,0,0,0,5],[0,1,0,0,-5],[1,0,0,0,5],[1,1,0,0,-5]];perimeter=orthogonalPerimeter;outlineConnect=0;targetShapes=umlLifeline;portConstraint=eastwest;newEdgeStyle={&quot;curved&quot;:0,&quot;rounded&quot;:0};" vertex="1" parent="ToIoeRrlu8P66vgVPPJZ-329">
          <mxGeometry x="40" y="180" width="10" height="11" as="geometry" />
        </mxCell>
        <mxCell id="ToIoeRrlu8P66vgVPPJZ-347" value="&lt;p style=&quot;margin: 0px; font-style: normal; font-variant-caps: normal; font-stretch: normal; line-height: normal; font-size-adjust: none; font-kerning: auto; font-variant-alternates: normal; font-variant-ligatures: normal; font-variant-numeric: normal; font-variant-east-asian: normal; font-variant-position: normal; font-variant-emoji: normal; font-feature-settings: normal; font-optical-sizing: auto; font-variation-settings: normal;&quot;&gt;【支付失败】&lt;/p&gt;" style="text;html=1;align=center;verticalAlign=middle;whiteSpace=wrap;rounded=0;" vertex="1" parent="ToIoeRrlu8P66vgVPPJZ-329">
          <mxGeometry x="290" y="197" width="80" height="20" as="geometry" />
        </mxCell>
        <mxCell id="ToIoeRrlu8P66vgVPPJZ-348" value="" style="html=1;points=[[0,0,0,0,5],[0,1,0,0,-5],[1,0,0,0,5],[1,1,0,0,-5]];perimeter=orthogonalPerimeter;outlineConnect=0;targetShapes=umlLifeline;portConstraint=eastwest;newEdgeStyle={&quot;curved&quot;:0,&quot;rounded&quot;:0};" vertex="1" parent="ToIoeRrlu8P66vgVPPJZ-329">
          <mxGeometry x="480" y="240" width="10" height="50" as="geometry" />
        </mxCell>
        <mxCell id="ToIoeRrlu8P66vgVPPJZ-349" value="" style="html=1;points=[[0,0,0,0,5],[0,1,0,0,-5],[1,0,0,0,5],[1,1,0,0,-5]];perimeter=orthogonalPerimeter;outlineConnect=0;targetShapes=umlLifeline;portConstraint=eastwest;newEdgeStyle={&quot;curved&quot;:0,&quot;rounded&quot;:0};" vertex="1" parent="ToIoeRrlu8P66vgVPPJZ-329">
          <mxGeometry x="260" y="240" width="10" height="19" as="geometry" />
        </mxCell>
        <mxCell id="ToIoeRrlu8P66vgVPPJZ-350" value="" style="html=1;points=[[0,0,0,0,5],[0,1,0,0,-5],[1,0,0,0,5],[1,1,0,0,-5]];perimeter=orthogonalPerimeter;outlineConnect=0;targetShapes=umlLifeline;portConstraint=eastwest;newEdgeStyle={&quot;curved&quot;:0,&quot;rounded&quot;:0};" vertex="1" parent="ToIoeRrlu8P66vgVPPJZ-329">
          <mxGeometry x="40" y="270" width="10" height="20" as="geometry" />
        </mxCell>
        <mxCell id="ToIoeRrlu8P66vgVPPJZ-351" value="&lt;p style=&quot;margin: 0px; font-style: normal; font-variant-caps: normal; font-stretch: normal; line-height: normal; font-size-adjust: none; font-kerning: auto; font-variant-alternates: normal; font-variant-ligatures: normal; font-variant-numeric: normal; font-variant-east-asian: normal; font-variant-position: normal; font-variant-emoji: normal; font-feature-settings: normal; font-optical-sizing: auto; font-variation-settings: normal;&quot;&gt;提示支付失败&lt;/p&gt;" style="text;html=1;align=center;verticalAlign=middle;whiteSpace=wrap;rounded=0;" vertex="1" parent="ToIoeRrlu8P66vgVPPJZ-329">
          <mxGeometry x="225" y="259" width="80" height="20" as="geometry" />
        </mxCell>
        <mxCell id="ToIoeRrlu8P66vgVPPJZ-352" value="" style="endArrow=open;startArrow=none;endFill=0;startFill=0;endSize=8;html=1;verticalAlign=bottom;labelBackgroundColor=none;strokeWidth=1;rounded=0;" edge="1" parent="ToIoeRrlu8P66vgVPPJZ-329">
          <mxGeometry width="160" relative="1" as="geometry">
            <mxPoint x="480" y="278.5000000000002" as="sourcePoint" />
            <mxPoint x="50" y="278.5" as="targetPoint" />
          </mxGeometry>
        </mxCell>
        <mxCell id="ToIoeRrlu8P66vgVPPJZ-353" value="【信息验证通过】" style="text;html=1;" vertex="1" parent="ToIoeRrlu8P66vgVPPJZ-299">
          <mxGeometry x="335" y="734" width="100" height="20" as="geometry" />
        </mxCell>
        <mxCell id="ToIoeRrlu8P66vgVPPJZ-354" value="" style="html=1;points=[[0,0,0,0,5],[0,1,0,0,-5],[1,0,0,0,5],[1,1,0,0,-5]];perimeter=orthogonalPerimeter;outlineConnect=0;targetShapes=umlLifeline;portConstraint=eastwest;newEdgeStyle={&quot;curved&quot;:0,&quot;rounded&quot;:0};" vertex="1" parent="ToIoeRrlu8P66vgVPPJZ-299">
          <mxGeometry x="270" y="780" width="10" height="40" as="geometry" />
        </mxCell>
        <mxCell id="ToIoeRrlu8P66vgVPPJZ-355" value="" style="html=1;points=[[0,0,0,0,5],[0,1,0,0,-5],[1,0,0,0,5],[1,1,0,0,-5]];perimeter=orthogonalPerimeter;outlineConnect=0;targetShapes=umlLifeline;portConstraint=eastwest;newEdgeStyle={&quot;curved&quot;:0,&quot;rounded&quot;:0};" vertex="1" parent="ToIoeRrlu8P66vgVPPJZ-299">
          <mxGeometry x="160" y="790" width="10" height="26.5" as="geometry" />
        </mxCell>
        <mxCell id="ToIoeRrlu8P66vgVPPJZ-356" value="" style="html=1;points=[[0,0,0,0,5],[0,1,0,0,-5],[1,0,0,0,5],[1,1,0,0,-5]];perimeter=orthogonalPerimeter;outlineConnect=0;targetShapes=umlLifeline;portConstraint=eastwest;newEdgeStyle={&quot;curved&quot;:0,&quot;rounded&quot;:0};" vertex="1" parent="ToIoeRrlu8P66vgVPPJZ-299">
          <mxGeometry x="50" y="800" width="10" height="20" as="geometry" />
        </mxCell>
        <mxCell id="ToIoeRrlu8P66vgVPPJZ-357" value="" style="endArrow=open;startArrow=none;endFill=0;startFill=0;endSize=8;html=1;verticalAlign=bottom;labelBackgroundColor=none;strokeWidth=1;rounded=0;" edge="1" parent="ToIoeRrlu8P66vgVPPJZ-299">
          <mxGeometry width="160" relative="1" as="geometry">
            <mxPoint x="270" y="789" as="sourcePoint" />
            <mxPoint x="170" y="789" as="targetPoint" />
          </mxGeometry>
        </mxCell>
        <mxCell id="ToIoeRrlu8P66vgVPPJZ-358" value="&lt;p style=&quot;margin: 0px; font-style: normal; font-variant-caps: normal; font-stretch: normal; line-height: normal; font-size-adjust: none; font-kerning: auto; font-variant-alternates: normal; font-variant-ligatures: normal; font-variant-numeric: normal; font-variant-east-asian: normal; font-variant-position: normal; font-variant-emoji: normal; font-feature-settings: normal; font-optical-sizing: auto; font-variation-settings: normal;&quot;&gt;返回错误信息&lt;/p&gt;" style="text;html=1;align=center;verticalAlign=middle;whiteSpace=wrap;rounded=0;" vertex="1" parent="ToIoeRrlu8P66vgVPPJZ-299">
          <mxGeometry x="180" y="769" width="80" height="20" as="geometry" />
        </mxCell>
        <mxCell id="ToIoeRrlu8P66vgVPPJZ-359" value="" style="endArrow=open;startArrow=none;endFill=0;startFill=0;endSize=8;html=1;verticalAlign=bottom;labelBackgroundColor=none;strokeWidth=1;rounded=0;" edge="1" parent="ToIoeRrlu8P66vgVPPJZ-299">
          <mxGeometry width="160" relative="1" as="geometry">
            <mxPoint x="160" y="804.71" as="sourcePoint" />
            <mxPoint x="60" y="804.71" as="targetPoint" />
          </mxGeometry>
        </mxCell>
        <mxCell id="ToIoeRrlu8P66vgVPPJZ-360" value="&lt;p style=&quot;margin: 0px; font-style: normal; font-variant-caps: normal; font-stretch: normal; line-height: normal; font-size-adjust: none; font-kerning: auto; font-variant-alternates: normal; font-variant-ligatures: normal; font-variant-numeric: normal; font-variant-east-asian: normal; font-variant-position: normal; font-variant-emoji: normal; font-feature-settings: normal; font-optical-sizing: auto; font-variation-settings: normal;&quot;&gt;显示信息错误&lt;/p&gt;" style="text;html=1;align=center;verticalAlign=middle;whiteSpace=wrap;rounded=0;" vertex="1" parent="ToIoeRrlu8P66vgVPPJZ-299">
          <mxGeometry x="70" y="784.71" width="80" height="20" as="geometry" />
        </mxCell>
      </root>
    </mxGraphModel>
  </diagram>
</mxfile>
